<?xml version="1.0" encoding="UTF-8" standalone="no"?>
<!DOCTYPE svg PUBLIC "-//W3C//DTD SVG 1.1//EN"
 "http://www.w3.org/Graphics/SVG/1.1/DTD/svg11.dtd">
<!-- Generated by graphviz version 2.36.0 (20140111.2315)
 -->
<!-- Title: IControls.h Pages: 1 -->
<!--zoomable 476 -->
<svg id="main" version="1.1" xmlns="http://www.w3.org/2000/svg" xmlns:xlink="http://www.w3.org/1999/xlink" xml:space="preserve" onload="init(evt)">
<style type="text/css"><![CDATA[
.edge:hover path { stroke: red; }
.edge:hover polygon { stroke: red; fill: red; }
]]></style>
<script type="text/javascript"><![CDATA[
var edges = document.getElementsByTagName('g');
if (edges && edges.length) {
  for (var i=0;i<edges.length;i++) {
    if (edges[i].id.substr(0,4)=='edge') {
      edges[i].setAttribute('class','edge');
    }
  }
}
]]></script>
        <defs>
                <circle id="rim" cx="0" cy="0" r="7"/>
                <circle id="rim2" cx="0" cy="0" r="3.5"/>
                <g id="zoomPlus">
                        <use xlink:href="#rim" fill="#404040">
                                <set attributeName="fill" to="#808080" begin="zoomplus.mouseover" end="zoomplus.mouseout"/>
                        </use>
                        <path d="M-4,0h8M0,-4v8" fill="none" stroke="white" stroke-width="1.5" pointer-events="none"/>
                </g>
                <g id="zoomMin">
                        <use xlink:href="#rim" fill="#404040">
                                <set attributeName="fill" to="#808080" begin="zoomminus.mouseover" end="zoomminus.mouseout"/>
                        </use>
                        <path d="M-4,0h8" fill="none" stroke="white" stroke-width="1.5" pointer-events="none"/>
                </g>
                <g id="dirArrow">
                        <path fill="none" stroke="white" stroke-width="1.5" d="M0,-3.0v7 M-2.5,-0.5L0,-3.0L2.5,-0.5"/>
                </g>
               <g id="resetDef">
                       <use xlink:href="#rim2" fill="#404040">
                               <set attributeName="fill" to="#808080" begin="reset.mouseover" end="reset.mouseout"/>
                       </use>
               </g>
        </defs>

<script type="text/javascript">
var viewWidth = 1239;
var viewHeight = 476;
var sectionId = 'dynsection-0';
</script>
<script xlink:href="svgpan.js"/>
<svg id="graph" class="graph">
<g id="viewport">
<title>IControls.h</title>
<polygon fill="white" stroke="none" points="-4,4 -4,-472 1235,-472 1235,4 -4,4"/>
<!-- Node1 -->
<g id="node1" class="node"><title>Node1</title>
<polygon fill="#bfbfbf" stroke="black" points="972.5,-448.5 972.5,-467.5 1037.5,-467.5 1037.5,-448.5 972.5,-448.5"/>
<text text-anchor="middle" x="1005" y="-455.5" font-family="Helvetica,sans-Serif" font-size="10.00">IControls.h</text>
</g>
<!-- Node2 -->
<g id="node2" class="node"><title>Node2</title>
<g id="a_node2"><a xlink:href="_i_control_8h.html" target="_top" xlink:title="The lowest level base class of an IGraphics control. ">
<polygon fill="white" stroke="black" points="975.5,-392.5 975.5,-411.5 1034.5,-411.5 1034.5,-392.5 975.5,-392.5"/>
<text text-anchor="middle" x="1005" y="-399.5" font-family="Helvetica,sans-Serif" font-size="10.00">IControl.h</text>
</a>
</g>
</g>
<!-- Node1&#45;&gt;Node2 -->
<g id="edge1" class="edge"><title>Node1&#45;&gt;Node2</title>
<path fill="none" stroke="midnightblue" d="M1005,-448.083C1005,-441.006 1005,-430.861 1005,-421.986"/>
<polygon fill="midnightblue" stroke="midnightblue" points="1008.5,-421.751 1005,-411.751 1001.5,-421.751 1008.5,-421.751"/>
</g>
<!-- Node3 -->
<g id="node3" class="node"><title>Node3</title>
<polygon fill="white" stroke="#bfbfbf" points="868,-0.5 868,-19.5 914,-19.5 914,-0.5 868,-0.5"/>
<text text-anchor="middle" x="891" y="-7.5" font-family="Helvetica,sans-Serif" font-size="10.00">cstring</text>
</g>
<!-- Node2&#45;&gt;Node3 -->
<g id="edge2" class="edge"><title>Node2&#45;&gt;Node3</title>
<path fill="none" stroke="midnightblue" d="M1010.28,-392.231C1020.73,-374.043 1043,-330.601 1043,-291 1043,-291 1043,-291 1043,-121 1043,-89.5448 1037.88,-77.5808 1015,-56 990.032,-32.4543 951.805,-21.0549 924.398,-15.6497"/>
<polygon fill="midnightblue" stroke="midnightblue" points="924.936,-12.1904 914.474,-13.8588 923.693,-19.0792 924.936,-12.1904"/>
</g>
<!-- Node4 -->
<g id="node4" class="node"><title>Node4</title>
<polygon fill="white" stroke="#bfbfbf" points="-0.5,-0.5 -0.5,-19.5 44.5,-19.5 44.5,-0.5 -0.5,-0.5"/>
<text text-anchor="middle" x="22" y="-7.5" font-family="Helvetica,sans-Serif" font-size="10.00">cstdlib</text>
</g>
<!-- Node2&#45;&gt;Node4 -->
<g id="edge3" class="edge"><title>Node2&#45;&gt;Node4</title>
<path fill="none" stroke="midnightblue" d="M975.496,-400.944C809.658,-400.253 1,-391.716 1,-291 1,-291 1,-291 1,-121 1,-88.3843 10.0179,-51.2785 16.2347,-29.5732"/>
<polygon fill="midnightblue" stroke="midnightblue" points="19.6657,-30.3151 19.1678,-19.7319 12.9573,-28.3156 19.6657,-30.3151"/>
</g>
<!-- Node5 -->
<g id="node5" class="node"><title>Node5</title>
<polygon fill="white" stroke="#bfbfbf" points="723,-56.5 723,-75.5 787,-75.5 787,-56.5 723,-56.5"/>
<text text-anchor="middle" x="755" y="-63.5" font-family="Helvetica,sans-Serif" font-size="10.00">wdlstring.h</text>
</g>
<!-- Node2&#45;&gt;Node5 -->
<g id="edge4" class="edge"><title>Node2&#45;&gt;Node5</title>
<path fill="none" stroke="midnightblue" d="M998.569,-392.408C965.274,-347.927 812.305,-143.56 767.416,-83.5883"/>
<polygon fill="midnightblue" stroke="midnightblue" points="770.183,-81.4435 761.389,-75.5351 764.579,-85.6382 770.183,-81.4435"/>
</g>
<!-- Node6 -->
<g id="node6" class="node"><title>Node6</title>
<polygon fill="white" stroke="#bfbfbf" points="1071,-336.5 1071,-355.5 1127,-355.5 1127,-336.5 1071,-336.5"/>
<text text-anchor="middle" x="1099" y="-343.5" font-family="Helvetica,sans-Serif" font-size="10.00">dirscan.h</text>
</g>
<!-- Node2&#45;&gt;Node6 -->
<g id="edge5" class="edge"><title>Node2&#45;&gt;Node6</title>
<path fill="none" stroke="midnightblue" d="M1020.1,-392.324C1034.9,-383.822 1057.69,-370.729 1074.98,-360.797"/>
<polygon fill="midnightblue" stroke="midnightblue" points="1077.01,-363.671 1083.93,-355.655 1073.52,-357.601 1077.01,-363.671"/>
</g>
<!-- Node7 -->
<g id="node7" class="node"><title>Node7</title>
<polygon fill="white" stroke="#bfbfbf" points="957.5,-56.5 957.5,-75.5 1006.5,-75.5 1006.5,-56.5 957.5,-56.5"/>
<text text-anchor="middle" x="982" y="-63.5" font-family="Helvetica,sans-Serif" font-size="10.00">ptrlist.h</text>
</g>
<!-- Node2&#45;&gt;Node7 -->
<g id="edge6" class="edge"><title>Node2&#45;&gt;Node7</title>
<path fill="none" stroke="midnightblue" d="M1005,-392.442C1005,-373.936 1005,-328.812 1005,-291 1005,-291 1005,-291 1005,-177 1005,-144.12 995.032,-106.86 988.221,-85.2353"/>
<polygon fill="midnightblue" stroke="midnightblue" points="991.54,-84.1248 985.102,-75.7105 984.888,-86.3032 991.54,-84.1248"/>
</g>
<!-- Node8 -->
<g id="node8" class="node"><title>Node8</title>
<g id="a_node8"><a xlink:href="_i_graphics_8h.html" target="_top" xlink:title="The lowest level base class of an IGraphics context. ">
<polygon fill="white" stroke="black" points="711.5,-336.5 711.5,-355.5 778.5,-355.5 778.5,-336.5 711.5,-336.5"/>
<text text-anchor="middle" x="745" y="-343.5" font-family="Helvetica,sans-Serif" font-size="10.00">IGraphics.h</text>
</a>
</g>
</g>
<!-- Node2&#45;&gt;Node8 -->
<g id="edge7" class="edge"><title>Node2&#45;&gt;Node8</title>
<path fill="none" stroke="midnightblue" d="M975.428,-394.858C929.759,-385.373 841.811,-367.107 788.763,-356.089"/>
<polygon fill="midnightblue" stroke="midnightblue" points="789.145,-352.594 778.642,-353.987 787.721,-359.448 789.145,-352.594"/>
</g>
<!-- Node31 -->
<g id="node31" class="node"><title>Node31</title>
<g id="a_node31"><a xlink:href="_i_plug_delegate_8h_source.html" target="_top" xlink:title="IPlugDelegate.h">
<polygon fill="white" stroke="black" points="1145,-336.5 1145,-355.5 1231,-355.5 1231,-336.5 1145,-336.5"/>
<text text-anchor="middle" x="1188" y="-343.5" font-family="Helvetica,sans-Serif" font-size="10.00">IPlugDelegate.h</text>
</a>
</g>
</g>
<!-- Node2&#45;&gt;Node31 -->
<g id="edge53" class="edge"><title>Node2&#45;&gt;Node31</title>
<path fill="none" stroke="midnightblue" d="M1034,-392.444C1065.18,-383.241 1114.93,-368.562 1149.41,-358.388"/>
<polygon fill="midnightblue" stroke="midnightblue" points="1150.54,-361.704 1159.14,-355.516 1148.56,-354.99 1150.54,-361.704"/>
</g>
<!-- Node9 -->
<g id="node9" class="node"><title>Node9</title>
<g id="a_node9"><a xlink:href="_i_graphics_constants_8h_source.html" target="_top" xlink:title="IGraphicsConstants.h">
<polygon fill="white" stroke="black" points="95,-224.5 95,-243.5 207,-243.5 207,-224.5 95,-224.5"/>
<text text-anchor="middle" x="151" y="-231.5" font-family="Helvetica,sans-Serif" font-size="10.00">IGraphicsConstants.h</text>
</a>
</g>
</g>
<!-- Node8&#45;&gt;Node9 -->
<g id="edge8" class="edge"><title>Node8&#45;&gt;Node9</title>
<path fill="none" stroke="midnightblue" d="M711.362,-338.771C613.609,-320.668 328.826,-267.931 207.165,-245.401"/>
<polygon fill="midnightblue" stroke="midnightblue" points="207.769,-241.953 197.299,-243.574 206.495,-248.836 207.769,-241.953"/>
</g>
<!-- Node23 -->
<g id="node23" class="node"><title>Node23</title>
<g id="a_node23"><a xlink:href="_i_graphics_structs_8h_source.html" target="_top" xlink:title="IGraphicsStructs.h">
<polygon fill="white" stroke="black" points="526,-280.5 526,-299.5 624,-299.5 624,-280.5 526,-280.5"/>
<text text-anchor="middle" x="575" y="-287.5" font-family="Helvetica,sans-Serif" font-size="10.00">IGraphicsStructs.h</text>
</a>
</g>
</g>
<!-- Node8&#45;&gt;Node23 -->
<g id="edge32" class="edge"><title>Node8&#45;&gt;Node23</title>
<path fill="none" stroke="midnightblue" d="M718.063,-336.444C689.34,-327.32 643.671,-312.813 611.679,-302.651"/>
<polygon fill="midnightblue" stroke="midnightblue" points="612.401,-299.208 601.811,-299.516 610.282,-305.88 612.401,-299.208"/>
</g>
<!-- Node29 -->
<g id="node29" class="node"><title>Node29</title>
<g id="a_node29"><a xlink:href="_i_graphics_utilites_8h_source.html" target="_top" xlink:title="IGraphicsUtilites.h">
<polygon fill="white" stroke="black" points="696,-280.5 696,-299.5 794,-299.5 794,-280.5 696,-280.5"/>
<text text-anchor="middle" x="745" y="-287.5" font-family="Helvetica,sans-Serif" font-size="10.00">IGraphicsUtilites.h</text>
</a>
</g>
</g>
<!-- Node8&#45;&gt;Node29 -->
<g id="edge45" class="edge"><title>Node8&#45;&gt;Node29</title>
<path fill="none" stroke="midnightblue" d="M745,-336.083C745,-329.006 745,-318.861 745,-309.986"/>
<polygon fill="midnightblue" stroke="midnightblue" points="748.5,-309.751 745,-299.751 741.5,-309.751 748.5,-309.751"/>
</g>
<!-- Node30 -->
<g id="node30" class="node"><title>Node30</title>
<g id="a_node30"><a xlink:href="_i_popup_menu_8h.html" target="_top" xlink:title="A class for setting the contents of a pop up menu. ">
<polygon fill="white" stroke="black" points="821,-112.5 821,-131.5 901,-131.5 901,-112.5 821,-112.5"/>
<text text-anchor="middle" x="861" y="-119.5" font-family="Helvetica,sans-Serif" font-size="10.00">IPopupMenu.h</text>
</a>
</g>
</g>
<!-- Node8&#45;&gt;Node30 -->
<g id="edge46" class="edge"><title>Node8&#45;&gt;Node30</title>
<path fill="none" stroke="midnightblue" d="M760.46,-336.285C785.36,-321.234 833.429,-287.734 852,-244 866.357,-210.188 865.331,-166.295 863.217,-141.744"/>
<polygon fill="midnightblue" stroke="midnightblue" points="866.684,-141.245 862.188,-131.652 859.72,-141.956 866.684,-141.245"/>
</g>
<!-- Node10 -->
<g id="node10" class="node"><title>Node10</title>
<g id="a_node10"><a xlink:href="_i_plug_platform_8h.html" target="_top" xlink:title="Include to get consistently named preprocessor macros for different platforms and logging functionali...">
<polygon fill="white" stroke="black" points="235,-168.5 235,-187.5 319,-187.5 319,-168.5 235,-168.5"/>
<text text-anchor="middle" x="277" y="-175.5" font-family="Helvetica,sans-Serif" font-size="10.00">IPlugPlatform.h</text>
</a>
</g>
</g>
<!-- Node9&#45;&gt;Node10 -->
<g id="edge9" class="edge"><title>Node9&#45;&gt;Node10</title>
<path fill="none" stroke="midnightblue" d="M170.965,-224.444C191.609,-215.596 224.063,-201.687 247.632,-191.586"/>
<polygon fill="midnightblue" stroke="midnightblue" points="249.316,-194.673 257.128,-187.516 246.558,-188.239 249.316,-194.673"/>
</g>
<!-- Node10&#45;&gt;Node3 -->
<g id="edge10" class="edge"><title>Node10&#45;&gt;Node3</title>
<path fill="none" stroke="midnightblue" d="M319.28,-177.247C454.483,-177.598 869.826,-175.131 910,-132 936.345,-103.715 915.697,-54.5909 901.509,-28.4831"/>
<polygon fill="midnightblue" stroke="midnightblue" points="904.493,-26.6494 896.499,-19.6954 898.411,-30.1163 904.493,-26.6494"/>
</g>
<!-- Node10&#45;&gt;Node4 -->
<g id="edge11" class="edge"><title>Node10&#45;&gt;Node4</title>
<path fill="none" stroke="midnightblue" d="M263.649,-168.309C222.166,-141.304 95.2234,-58.667 43.8869,-25.2479"/>
<polygon fill="midnightblue" stroke="midnightblue" points="45.5089,-22.1276 35.2187,-19.6051 41.6899,-27.9941 45.5089,-22.1276"/>
</g>
<!-- Node11 -->
<g id="node11" class="node"><title>Node11</title>
<g id="a_node11"><a xlink:href="_i_plug_logger_8h.html" target="_top" xlink:title="IPlug logging a.k.a tracing functionailty. ">
<polygon fill="white" stroke="black" points="301.5,-112.5 301.5,-131.5 378.5,-131.5 378.5,-112.5 301.5,-112.5"/>
<text text-anchor="middle" x="340" y="-119.5" font-family="Helvetica,sans-Serif" font-size="10.00">IPlugLogger.h</text>
</a>
</g>
</g>
<!-- Node10&#45;&gt;Node11 -->
<g id="edge12" class="edge"><title>Node10&#45;&gt;Node11</title>
<path fill="none" stroke="midnightblue" d="M287.122,-168.324C296.526,-160.263 310.744,-148.077 322.069,-138.369"/>
<polygon fill="midnightblue" stroke="midnightblue" points="324.379,-140.999 329.694,-131.834 319.823,-135.684 324.379,-140.999"/>
</g>
<!-- Node11&#45;&gt;Node3 -->
<g id="edge17" class="edge"><title>Node11&#45;&gt;Node3</title>
<path fill="none" stroke="midnightblue" d="M378.641,-114.139C424.287,-105.866 502.435,-91.1706 569,-76 603.474,-68.1432 611.478,-63.6432 646,-56 721.369,-39.3131 810.748,-24.0185 857.956,-16.2875"/>
<polygon fill="midnightblue" stroke="midnightblue" points="858.611,-19.7269 867.919,-14.6658 857.487,-12.8179 858.611,-19.7269"/>
</g>
<!-- Node11&#45;&gt;Node5 -->
<g id="edge20" class="edge"><title>Node11&#45;&gt;Node5</title>
<path fill="none" stroke="midnightblue" d="M378.558,-117.516C446.432,-111.124 591.569,-96.2922 713,-76 713.101,-75.9831 713.202,-75.9661 713.304,-75.9491"/>
<polygon fill="midnightblue" stroke="midnightblue" points="713.748,-79.426 722.954,-74.1811 712.487,-72.5405 713.748,-79.426"/>
</g>
<!-- Node12 -->
<g id="node12" class="node"><title>Node12</title>
<polygon fill="white" stroke="#bfbfbf" points="461.5,-0.5 461.5,-19.5 504.5,-19.5 504.5,-0.5 461.5,-0.5"/>
<text text-anchor="middle" x="483" y="-7.5" font-family="Helvetica,sans-Serif" font-size="10.00">cstdio</text>
</g>
<!-- Node11&#45;&gt;Node12 -->
<g id="edge13" class="edge"><title>Node11&#45;&gt;Node12</title>
<path fill="none" stroke="midnightblue" d="M371.677,-112.405C393.308,-105.329 421.629,-93.5729 442,-76 456.958,-63.0967 468.329,-43.3759 475.258,-29.04"/>
<polygon fill="midnightblue" stroke="midnightblue" points="478.54,-30.2781 479.506,-19.7274 472.171,-27.3728 478.54,-30.2781"/>
</g>
<!-- Node13 -->
<g id="node13" class="node"><title>Node13</title>
<polygon fill="white" stroke="#bfbfbf" points="322,-0.5 322,-19.5 368,-19.5 368,-0.5 322,-0.5"/>
<text text-anchor="middle" x="345" y="-7.5" font-family="Helvetica,sans-Serif" font-size="10.00">cctype</text>
</g>
<!-- Node11&#45;&gt;Node13 -->
<g id="edge14" class="edge"><title>Node11&#45;&gt;Node13</title>
<path fill="none" stroke="midnightblue" d="M374.184,-112.493C392.993,-105.877 414.743,-94.5958 426,-76 440.784,-51.5783 406.296,-32.5015 377.829,-21.5"/>
<polygon fill="midnightblue" stroke="midnightblue" points="378.696,-18.0904 368.102,-17.9498 376.296,-24.6662 378.696,-18.0904"/>
</g>
<!-- Node14 -->
<g id="node14" class="node"><title>Node14</title>
<polygon fill="white" stroke="#bfbfbf" points="511.5,-56.5 511.5,-75.5 560.5,-75.5 560.5,-56.5 511.5,-56.5"/>
<text text-anchor="middle" x="536" y="-63.5" font-family="Helvetica,sans-Serif" font-size="10.00">cstdarg</text>
</g>
<!-- Node11&#45;&gt;Node14 -->
<g id="edge15" class="edge"><title>Node11&#45;&gt;Node14</title>
<path fill="none" stroke="midnightblue" d="M371.057,-112.444C406.577,-102.657 464.571,-86.6793 501.48,-76.5107"/>
<polygon fill="midnightblue" stroke="midnightblue" points="502.583,-79.8371 511.294,-73.8067 500.724,-73.0886 502.583,-79.8371"/>
</g>
<!-- Node15 -->
<g id="node15" class="node"><title>Node15</title>
<polygon fill="white" stroke="#bfbfbf" points="241,-56.5 241,-75.5 287,-75.5 287,-56.5 241,-56.5"/>
<text text-anchor="middle" x="264" y="-63.5" font-family="Helvetica,sans-Serif" font-size="10.00">cstdint</text>
</g>
<!-- Node11&#45;&gt;Node15 -->
<g id="edge16" class="edge"><title>Node11&#45;&gt;Node15</title>
<path fill="none" stroke="midnightblue" d="M327.789,-112.324C316.224,-104.107 298.625,-91.6017 284.839,-81.8069"/>
<polygon fill="midnightblue" stroke="midnightblue" points="286.612,-78.7729 276.433,-75.8339 282.557,-84.4791 286.612,-78.7729"/>
</g>
<!-- Node16 -->
<g id="node16" class="node"><title>Node16</title>
<polygon fill="white" stroke="#bfbfbf" points="305.5,-56.5 305.5,-75.5 346.5,-75.5 346.5,-56.5 305.5,-56.5"/>
<text text-anchor="middle" x="326" y="-63.5" font-family="Helvetica,sans-Serif" font-size="10.00">ctime</text>
</g>
<!-- Node11&#45;&gt;Node16 -->
<g id="edge18" class="edge"><title>Node11&#45;&gt;Node16</title>
<path fill="none" stroke="midnightblue" d="M337.688,-112.083C335.833,-104.927 333.165,-94.6353 330.846,-85.6911"/>
<polygon fill="midnightblue" stroke="midnightblue" points="334.166,-84.5527 328.269,-75.7511 327.391,-86.3094 334.166,-84.5527"/>
</g>
<!-- Node17 -->
<g id="node17" class="node"><title>Node17</title>
<polygon fill="white" stroke="#bfbfbf" points="655.5,-56.5 655.5,-75.5 704.5,-75.5 704.5,-56.5 655.5,-56.5"/>
<text text-anchor="middle" x="680" y="-63.5" font-family="Helvetica,sans-Serif" font-size="10.00">cassert</text>
</g>
<!-- Node11&#45;&gt;Node17 -->
<g id="edge19" class="edge"><title>Node11&#45;&gt;Node17</title>
<path fill="none" stroke="midnightblue" d="M378.671,-114.858C445.444,-104.253 581.333,-82.6706 645.27,-72.5159"/>
<polygon fill="midnightblue" stroke="midnightblue" points="645.928,-75.9554 655.255,-70.93 644.83,-69.042 645.928,-75.9554"/>
</g>
<!-- Node18 -->
<g id="node18" class="node"><title>Node18</title>
<polygon fill="white" stroke="#bfbfbf" points="365,-56.5 365,-75.5 417,-75.5 417,-56.5 365,-56.5"/>
<text text-anchor="middle" x="391" y="-63.5" font-family="Helvetica,sans-Serif" font-size="10.00">mutex.h</text>
</g>
<!-- Node11&#45;&gt;Node18 -->
<g id="edge21" class="edge"><title>Node11&#45;&gt;Node18</title>
<path fill="none" stroke="midnightblue" d="M348.422,-112.083C355.848,-104.22 366.852,-92.5688 375.812,-83.0813"/>
<polygon fill="midnightblue" stroke="midnightblue" points="378.413,-85.4244 382.735,-75.7511 373.324,-80.618 378.413,-85.4244"/>
</g>
<!-- Node19 -->
<g id="node19" class="node"><title>Node19</title>
<g id="a_node19"><a xlink:href="_i_plug_constants_8h.html" target="_top" xlink:title="Constant definitions, Types, magic numbers. ">
<polygon fill="white" stroke="black" points="137,-0.5 137,-19.5 229,-19.5 229,-0.5 137,-0.5"/>
<text text-anchor="middle" x="183" y="-7.5" font-family="Helvetica,sans-Serif" font-size="10.00">IPlugConstants.h</text>
</a>
</g>
</g>
<!-- Node11&#45;&gt;Node19 -->
<g id="edge22" class="edge"><title>Node11&#45;&gt;Node19</title>
<path fill="none" stroke="midnightblue" d="M301.328,-118.202C247.593,-113.419 154.604,-101.591 134,-76 120.228,-58.8952 141.229,-38.6067 159.863,-25.3016"/>
<polygon fill="midnightblue" stroke="midnightblue" points="162.06,-28.0415 168.39,-19.546 158.144,-22.2394 162.06,-28.0415"/>
</g>
<!-- Node20 -->
<g id="node20" class="node"><title>Node20</title>
<g id="a_node20"><a xlink:href="_i_plug_utilities_8h.html" target="_top" xlink:title="Utility functions and macros. ">
<polygon fill="white" stroke="black" points="143,-56.5 143,-75.5 223,-75.5 223,-56.5 143,-56.5"/>
<text text-anchor="middle" x="183" y="-63.5" font-family="Helvetica,sans-Serif" font-size="10.00">IPlugUtilities.h</text>
</a>
</g>
</g>
<!-- Node11&#45;&gt;Node20 -->
<g id="edge23" class="edge"><title>Node11&#45;&gt;Node20</title>
<path fill="none" stroke="midnightblue" d="M315.123,-112.444C288.711,-103.359 246.785,-88.9388 217.258,-78.7831"/>
<polygon fill="midnightblue" stroke="midnightblue" points="218.355,-75.4593 207.761,-75.5164 216.079,-82.0787 218.355,-75.4593"/>
</g>
<!-- Node20&#45;&gt;Node3 -->
<g id="edge28" class="edge"><title>Node20&#45;&gt;Node3</title>
<path fill="none" stroke="midnightblue" d="M223.054,-57.2607C226.075,-56.7942 229.082,-56.3664 232,-56 470.809,-26.0132 760.994,-14.9488 857.796,-11.9355"/>
<polygon fill="midnightblue" stroke="midnightblue" points="857.965,-15.4321 867.854,-11.63 857.752,-8.43531 857.965,-15.4321"/>
</g>
<!-- Node20&#45;&gt;Node4 -->
<g id="edge27" class="edge"><title>Node20&#45;&gt;Node4</title>
<path fill="none" stroke="midnightblue" d="M157.489,-56.4435C129.528,-47.0652 84.6114,-32.0001 54.2333,-21.8112"/>
<polygon fill="midnightblue" stroke="midnightblue" points="55.1279,-18.4197 44.534,-18.558 52.9019,-25.0563 55.1279,-18.4197"/>
</g>
<!-- Node20&#45;&gt;Node10 -->
<g id="edge31" class="edge"><title>Node20&#45;&gt;Node10</title>
<path fill="none" stroke="midnightblue" d="M190.342,-75.5914C205.961,-93.8691 242.708,-136.871 262.973,-160.586"/>
<polygon fill="midnightblue" stroke="midnightblue" points="260.467,-163.04 269.624,-168.368 265.788,-158.492 260.467,-163.04"/>
</g>
<!-- Node20&#45;&gt;Node12 -->
<g id="edge26" class="edge"><title>Node20&#45;&gt;Node12</title>
<path fill="none" stroke="midnightblue" d="M223.109,-57.6187C226.117,-57.0695 229.107,-56.5251 232,-56 310.766,-41.7057 403.49,-25.1533 451.155,-16.6645"/>
<polygon fill="midnightblue" stroke="midnightblue" points="451.94,-20.08 461.171,-14.8813 450.713,-13.1883 451.94,-20.08"/>
</g>
<!-- Node20&#45;&gt;Node13 -->
<g id="edge29" class="edge"><title>Node20&#45;&gt;Node13</title>
<path fill="none" stroke="midnightblue" d="M208.669,-56.4435C236.644,-47.1186 281.485,-32.1716 312.043,-21.9858"/>
<polygon fill="midnightblue" stroke="midnightblue" points="313.433,-25.2118 321.813,-18.729 311.219,-18.571 313.433,-25.2118"/>
</g>
<!-- Node20&#45;&gt;Node19 -->
<g id="edge30" class="edge"><title>Node20&#45;&gt;Node19</title>
<path fill="none" stroke="midnightblue" d="M183,-56.083C183,-49.0059 183,-38.8611 183,-29.9865"/>
<polygon fill="midnightblue" stroke="midnightblue" points="186.5,-29.751 183,-19.7511 179.5,-29.7511 186.5,-29.751"/>
</g>
<!-- Node21 -->
<g id="node21" class="node"><title>Node21</title>
<polygon fill="white" stroke="#bfbfbf" points="63,-0.5 63,-19.5 119,-19.5 119,-0.5 63,-0.5"/>
<text text-anchor="middle" x="91" y="-7.5" font-family="Helvetica,sans-Serif" font-size="10.00">algorithm</text>
</g>
<!-- Node20&#45;&gt;Node21 -->
<g id="edge24" class="edge"><title>Node20&#45;&gt;Node21</title>
<path fill="none" stroke="midnightblue" d="M168.219,-56.324C153.733,-47.8215 131.427,-34.7288 114.507,-24.7975"/>
<polygon fill="midnightblue" stroke="midnightblue" points="116.141,-21.6981 105.745,-19.6545 112.597,-27.735 116.141,-21.6981"/>
</g>
<!-- Node22 -->
<g id="node22" class="node"><title>Node22</title>
<polygon fill="white" stroke="#bfbfbf" points="605,-0.5 605,-19.5 649,-19.5 649,-0.5 605,-0.5"/>
<text text-anchor="middle" x="627" y="-7.5" font-family="Helvetica,sans-Serif" font-size="10.00">cmath</text>
</g>
<!-- Node20&#45;&gt;Node22 -->
<g id="edge25" class="edge"><title>Node20&#45;&gt;Node22</title>
<path fill="none" stroke="midnightblue" d="M223.074,-57.4094C226.091,-56.9085 229.091,-56.4323 232,-56 366.143,-36.0634 527.065,-20.221 594.634,-13.9327"/>
<polygon fill="midnightblue" stroke="midnightblue" points="595.023,-17.4118 604.658,-13.0064 594.378,-10.4415 595.023,-17.4118"/>
</g>
<!-- Node23&#45;&gt;Node5 -->
<g id="edge39" class="edge"><title>Node23&#45;&gt;Node5</title>
<path fill="none" stroke="midnightblue" d="M624.113,-283.277C691.491,-274.925 805.705,-258.781 818,-244 823.684,-237.166 819.845,-232.695 818,-224 814.365,-206.872 808.882,-204.1 802,-188 791.424,-163.259 788.773,-157.069 779,-132 772.924,-116.414 766.367,-98.5808 761.645,-85.541"/>
<polygon fill="midnightblue" stroke="midnightblue" points="764.843,-84.0911 758.16,-75.8695 758.257,-86.4638 764.843,-84.0911"/>
</g>
<!-- Node23&#45;&gt;Node7 -->
<g id="edge40" class="edge"><title>Node23&#45;&gt;Node7</title>
<path fill="none" stroke="midnightblue" d="M624.101,-284.418C688.702,-277.718 798.127,-263.848 833,-244 901.605,-204.953 952.686,-121.547 972.719,-84.8997"/>
<polygon fill="midnightblue" stroke="midnightblue" points="975.912,-86.3488 977.534,-75.8788 969.737,-83.0523 975.912,-86.3488"/>
</g>
<!-- Node23&#45;&gt;Node9 -->
<g id="edge44" class="edge"><title>Node23&#45;&gt;Node9</title>
<path fill="none" stroke="midnightblue" d="M525.747,-282.762C457.359,-274.094 329.771,-257.906 221,-244 219.735,-243.838 218.458,-243.675 217.17,-243.51"/>
<polygon fill="midnightblue" stroke="midnightblue" points="217.527,-240.027 207.163,-242.228 216.637,-246.971 217.527,-240.027"/>
</g>
<!-- Node23&#45;&gt;Node10 -->
<g id="edge43" class="edge"><title>Node23&#45;&gt;Node10</title>
<path fill="none" stroke="midnightblue" d="M525.613,-280.518C488.362,-273.236 436.435,-261.176 393,-244 358.094,-230.197 320.733,-207.706 298.117,-193.132"/>
<polygon fill="midnightblue" stroke="midnightblue" points="299.94,-190.142 289.654,-187.602 296.111,-196.002 299.94,-190.142"/>
</g>
<!-- Node23&#45;&gt;Node17 -->
<g id="edge34" class="edge"><title>Node23&#45;&gt;Node17</title>
<path fill="none" stroke="midnightblue" d="M526.936,-280.42C490.338,-271.376 448.643,-254.147 464,-224 502.567,-148.289 596.626,-100.513 646.951,-79.4804"/>
<polygon fill="midnightblue" stroke="midnightblue" points="648.463,-82.6439 656.403,-75.63 645.822,-76.1611 648.463,-82.6439"/>
</g>
<!-- Node23&#45;&gt;Node21 -->
<g id="edge36" class="edge"><title>Node23&#45;&gt;Node21</title>
<path fill="none" stroke="midnightblue" d="M525.79,-285.403C453.642,-277.941 317.79,-255.358 226,-188 172.2,-148.52 164.305,-130.643 126,-76 115.447,-60.9464 105.732,-42.3559 99.2289,-28.9179"/>
<polygon fill="midnightblue" stroke="midnightblue" points="102.354,-27.3398 94.9212,-19.79 96.0239,-30.3273 102.354,-27.3398"/>
</g>
<!-- Node23&#45;&gt;Node22 -->
<g id="edge33" class="edge"><title>Node23&#45;&gt;Node22</title>
<path fill="none" stroke="midnightblue" d="M525.839,-283.371C500.818,-277.737 472.486,-266.479 457,-244 451.957,-236.68 454.958,-232.651 457,-224 475.952,-143.717 513.729,-137.234 569,-76 583.797,-59.6068 600.583,-40.7679 612.276,-27.6064"/>
<polygon fill="midnightblue" stroke="midnightblue" points="615.131,-29.6622 619.152,-19.86 609.896,-25.0153 615.131,-29.6622"/>
</g>
<!-- Node24 -->
<g id="node24" class="node"><title>Node24</title>
<polygon fill="white" stroke="#bfbfbf" points="473.5,-224.5 473.5,-243.5 532.5,-243.5 532.5,-224.5 473.5,-224.5"/>
<text text-anchor="middle" x="503" y="-231.5" font-family="Helvetica,sans-Serif" font-size="10.00">functional</text>
</g>
<!-- Node23&#45;&gt;Node24 -->
<g id="edge35" class="edge"><title>Node23&#45;&gt;Node24</title>
<path fill="none" stroke="midnightblue" d="M563.432,-280.324C552.58,-272.185 536.119,-259.839 523.117,-250.087"/>
<polygon fill="midnightblue" stroke="midnightblue" points="524.879,-247.034 514.779,-243.834 520.679,-252.634 524.879,-247.034"/>
</g>
<!-- Node25 -->
<g id="node25" class="node"><title>Node25</title>
<polygon fill="white" stroke="#bfbfbf" points="550.5,-224.5 550.5,-243.5 599.5,-243.5 599.5,-224.5 550.5,-224.5"/>
<text text-anchor="middle" x="575" y="-231.5" font-family="Helvetica,sans-Serif" font-size="10.00">random</text>
</g>
<!-- Node23&#45;&gt;Node25 -->
<g id="edge37" class="edge"><title>Node23&#45;&gt;Node25</title>
<path fill="none" stroke="midnightblue" d="M575,-280.083C575,-273.006 575,-262.861 575,-253.986"/>
<polygon fill="midnightblue" stroke="midnightblue" points="578.5,-253.751 575,-243.751 571.5,-253.751 578.5,-253.751"/>
</g>
<!-- Node26 -->
<g id="node26" class="node"><title>Node26</title>
<polygon fill="white" stroke="#bfbfbf" points="618,-224.5 618,-243.5 664,-243.5 664,-224.5 618,-224.5"/>
<text text-anchor="middle" x="641" y="-231.5" font-family="Helvetica,sans-Serif" font-size="10.00">chrono</text>
</g>
<!-- Node23&#45;&gt;Node26 -->
<g id="edge38" class="edge"><title>Node23&#45;&gt;Node26</title>
<path fill="none" stroke="midnightblue" d="M585.604,-280.324C595.456,-272.263 610.351,-260.077 622.215,-250.369"/>
<polygon fill="midnightblue" stroke="midnightblue" points="624.68,-252.875 630.203,-243.834 620.247,-247.457 624.68,-252.875"/>
</g>
<!-- Node27 -->
<g id="node27" class="node"><title>Node27</title>
<polygon fill="white" stroke="#bfbfbf" points="682.5,-224.5 682.5,-243.5 729.5,-243.5 729.5,-224.5 682.5,-224.5"/>
<text text-anchor="middle" x="706" y="-231.5" font-family="Helvetica,sans-Serif" font-size="10.00">swell.h</text>
</g>
<!-- Node23&#45;&gt;Node27 -->
<g id="edge41" class="edge"><title>Node23&#45;&gt;Node27</title>
<path fill="none" stroke="midnightblue" d="M595.757,-280.444C617.316,-271.557 651.263,-257.563 675.794,-247.451"/>
<polygon fill="midnightblue" stroke="midnightblue" points="677.428,-250.563 685.34,-243.516 674.761,-244.092 677.428,-250.563"/>
</g>
<!-- Node28 -->
<g id="node28" class="node"><title>Node28</title>
<polygon fill="white" stroke="#bfbfbf" points="748,-224.5 748,-243.5 810,-243.5 810,-224.5 748,-224.5"/>
<text text-anchor="middle" x="779" y="-231.5" font-family="Helvetica,sans-Serif" font-size="10.00">nanosvg.h</text>
</g>
<!-- Node23&#45;&gt;Node28 -->
<g id="edge42" class="edge"><title>Node23&#45;&gt;Node28</title>
<path fill="none" stroke="midnightblue" d="M607.324,-280.444C642.699,-271.08 699.49,-256.047 737.979,-245.859"/>
<polygon fill="midnightblue" stroke="midnightblue" points="739.059,-249.193 747.83,-243.251 737.268,-242.426 739.059,-249.193"/>
</g>
<!-- Node30&#45;&gt;Node3 -->
<g id="edge48" class="edge"><title>Node30&#45;&gt;Node3</title>
<path fill="none" stroke="midnightblue" d="M863.354,-112.368C868.217,-94.5366 879.465,-53.2953 886.017,-29.2717"/>
<polygon fill="midnightblue" stroke="midnightblue" points="889.402,-30.16 888.657,-19.5914 882.649,-28.3181 889.402,-30.16"/>
</g>
<!-- Node30&#45;&gt;Node5 -->
<g id="edge51" class="edge"><title>Node30&#45;&gt;Node5</title>
<path fill="none" stroke="midnightblue" d="M843.969,-112.324C826.97,-103.664 800.624,-90.2424 781.007,-80.249"/>
<polygon fill="midnightblue" stroke="midnightblue" points="782.488,-77.0752 771.988,-75.6545 779.31,-83.3125 782.488,-77.0752"/>
</g>
<!-- Node30&#45;&gt;Node7 -->
<g id="edge52" class="edge"><title>Node30&#45;&gt;Node7</title>
<path fill="none" stroke="midnightblue" d="M880.173,-112.444C899.909,-103.636 930.885,-89.8116 953.493,-79.722"/>
<polygon fill="midnightblue" stroke="midnightblue" points="955.211,-82.788 962.917,-75.5164 952.359,-76.3957 955.211,-82.788"/>
</g>
<!-- Node30&#45;&gt;Node12 -->
<g id="edge49" class="edge"><title>Node30&#45;&gt;Node12</title>
<path fill="none" stroke="midnightblue" d="M855.032,-112.058C844.829,-97.5793 822.544,-69.2869 796,-56 771.142,-43.5572 589.696,-22.6355 514.997,-14.4399"/>
<polygon fill="midnightblue" stroke="midnightblue" points="515.102,-10.9307 504.782,-13.3256 514.343,-17.8894 515.102,-10.9307"/>
</g>
<!-- Node30&#45;&gt;Node17 -->
<g id="edge50" class="edge"><title>Node30&#45;&gt;Node17</title>
<path fill="none" stroke="midnightblue" d="M832.32,-112.444C800.431,-102.93 748.927,-87.5637 714.768,-77.3728"/>
<polygon fill="midnightblue" stroke="midnightblue" points="715.348,-73.8935 704.765,-74.3884 713.347,-80.6013 715.348,-73.8935"/>
</g>
<!-- Node30&#45;&gt;Node22 -->
<g id="edge47" class="edge"><title>Node30&#45;&gt;Node22</title>
<path fill="none" stroke="midnightblue" d="M859.256,-112.321C855.951,-98.2205 847.392,-70.4594 829,-56 802.894,-35.476 709.167,-21.1291 659.086,-14.7396"/>
<polygon fill="midnightblue" stroke="midnightblue" points="659.458,-11.2589 649.102,-13.4976 658.593,-18.2054 659.458,-11.2589"/>
</g>
</g>
</svg>
        <g id="navigator" transform="translate(0 0)" fill="#404254">
                <rect fill="#f2f5e9" fill-opacity="0.5" stroke="#606060" stroke-width=".5" x="0" y="0" width="60" height="60"/>
                <use id="zoomplus" xlink:href="#zoomPlus" x="17" y="9" onmousedown="handleZoom(evt,'in')"/>
                <use id="zoomminus" xlink:href="#zoomMin" x="42" y="9" onmousedown="handleZoom(evt,'out')"/>
                <use id="reset" xlink:href="#resetDef" x="30" y="36" onmousedown="handleReset()"/>
                <g id="arrowUp" xlink:href="#dirArrow" transform="translate(30 24)" onmousedown="handlePan(0,-1)">
                  <use xlink:href="#rim" fill="#404040">
                        <set attributeName="fill" to="#808080" begin="arrowUp.mouseover" end="arrowUp.mouseout"/>
                  </use>
                  <path fill="none" stroke="white" stroke-width="1.5" d="M0,-3.0v7 M-2.5,-0.5L0,-3.0L2.5,-0.5"/>
                </g>
                <g id="arrowRight" xlink:href="#dirArrow" transform="rotate(90) translate(36 -43)" onmousedown="handlePan(1,0)">
                  <use xlink:href="#rim" fill="#404040">
                        <set attributeName="fill" to="#808080" begin="arrowRight.mouseover" end="arrowRight.mouseout"/>
                  </use>
                  <path fill="none" stroke="white" stroke-width="1.5" d="M0,-3.0v7 M-2.5,-0.5L0,-3.0L2.5,-0.5"/>
                </g>
                <g id="arrowDown" xlink:href="#dirArrow" transform="rotate(180) translate(-30 -48)" onmousedown="handlePan(0,1)">
                  <use xlink:href="#rim" fill="#404040">
                        <set attributeName="fill" to="#808080" begin="arrowDown.mouseover" end="arrowDown.mouseout"/>
                  </use>
                  <path fill="none" stroke="white" stroke-width="1.5" d="M0,-3.0v7 M-2.5,-0.5L0,-3.0L2.5,-0.5"/>
                </g>
                <g id="arrowLeft" xlink:href="#dirArrow" transform="rotate(270) translate(-36 17)" onmousedown="handlePan(-1,0)">
                  <use xlink:href="#rim" fill="#404040">
                        <set attributeName="fill" to="#808080" begin="arrowLeft.mouseover" end="arrowLeft.mouseout"/>
                  </use>
                  <path fill="none" stroke="white" stroke-width="1.5" d="M0,-3.0v7 M-2.5,-0.5L0,-3.0L2.5,-0.5"/>
                </g>
        </g>
        <svg viewBox="0 0 15 15" width="100%" height="30px" preserveAspectRatio="xMaxYMin meet">
         <g id="arrow_out" transform="scale(0.3 0.3)">
          <a xlink:href="_i_controls_8h__incl_org.svg" target="_base">
           <rect id="button" ry="5" rx="5" y="6" x="6" height="38" width="38"
                fill="#f2f5e9" fill-opacity="0.5" stroke="#606060" stroke-width="1.0"/>
           <path id="arrow"
             d="M 11.500037,31.436501 C 11.940474,20.09759 22.043105,11.32322 32.158766,21.979434 L 37.068811,17.246167 C 37.068811,17.246167 37.088388,32 37.088388,32 L 22.160133,31.978069 C 22.160133,31.978069 26.997745,27.140456 26.997745,27.140456 C 18.528582,18.264221 13.291696,25.230495 11.500037,31.436501 z"
             style="fill:#404040;"/>
          </a>
         </g>
        </svg>
</svg>
