<?xml version="1.0" encoding="UTF-8" standalone="no"?>
<!DOCTYPE svg PUBLIC "-//W3C//DTD SVG 1.1//EN"
 "http://www.w3.org/Graphics/SVG/1.1/DTD/svg11.dtd">
<!-- Generated by graphviz version 2.36.0 (20140111.2315)
 -->
<!-- Title: IGraphics.h Pages: 1 -->
<svg width="1546pt" height="252pt"
 viewBox="0.00 0.00 1546.00 252.00" xmlns="http://www.w3.org/2000/svg" xmlns:xlink="http://www.w3.org/1999/xlink">
<g id="graph0" class="graph" transform="scale(1 1) rotate(0) translate(4 248)">
<title>IGraphics.h</title>
<polygon fill="white" stroke="none" points="-4,4 -4,-248 1542,-248 1542,4 -4,4"/>
<!-- Node1 -->
<g id="node1" class="node"><title>Node1</title>
<polygon fill="#bfbfbf" stroke="black" points="980.5,-224.5 980.5,-243.5 1047.5,-243.5 1047.5,-224.5 980.5,-224.5"/>
<text text-anchor="middle" x="1014" y="-231.5" font-family="Helvetica,sans-Serif" font-size="10.00">IGraphics.h</text>
</g>
<!-- Node2 -->
<g id="node2" class="node"><title>Node2</title>
<g id="a_node2"><a xlink:href="_i_control_8h.html" target="_top" xlink:title="The lowest level base class of an IGraphics control. ">
<polygon fill="white" stroke="black" points="554.5,-168.5 554.5,-187.5 613.5,-187.5 613.5,-168.5 554.5,-168.5"/>
<text text-anchor="middle" x="584" y="-175.5" font-family="Helvetica,sans-Serif" font-size="10.00">IControl.h</text>
</a>
</g>
</g>
<!-- Node1&#45;&gt;Node2 -->
<g id="edge1" class="edge"><title>Node1&#45;&gt;Node2</title>
<path fill="none" stroke="midnightblue" d="M970.115,-227.489C882.464,-216.482 687.786,-192.034 613.545,-182.71"/>
<polygon fill="midnightblue" stroke="midnightblue" points="969.9,-230.989 980.259,-228.763 970.773,-224.044 969.9,-230.989"/>
</g>
<!-- Node11 -->
<g id="node11" class="node"><title>Node11</title>
<g id="a_node11"><a xlink:href="_i_graphics_8cpp_source.html" target="_top" xlink:title="IGraphics.cpp">
<polygon fill="white" stroke="black" points="-0.5,-56.5 -0.5,-75.5 76.5,-75.5 76.5,-56.5 -0.5,-56.5"/>
<text text-anchor="middle" x="38" y="-63.5" font-family="Helvetica,sans-Serif" font-size="10.00">IGraphics.cpp</text>
</a>
</g>
</g>
<!-- Node1&#45;&gt;Node11 -->
<g id="edge16" class="edge"><title>Node1&#45;&gt;Node11</title>
<path fill="none" stroke="midnightblue" d="M969.995,-231.784C788.421,-226.329 103.958,-201.269 40,-132 25.9075,-116.737 31.0398,-89.8357 35.0414,-75.9108"/>
<polygon fill="midnightblue" stroke="midnightblue" points="970.139,-235.29 980.239,-232.087 970.346,-228.293 970.139,-235.29"/>
</g>
<!-- Node15 -->
<g id="node15" class="node"><title>Node15</title>
<g id="a_node15"><a xlink:href="_i_plug_base_graphics_8cpp_source.html" target="_top" xlink:title="IPlugBaseGraphics.cpp">
<polygon fill="white" stroke="black" points="954.5,-112.5 954.5,-131.5 1073.5,-131.5 1073.5,-112.5 954.5,-112.5"/>
<text text-anchor="middle" x="1014" y="-119.5" font-family="Helvetica,sans-Serif" font-size="10.00">IPlugBaseGraphics.cpp</text>
</a>
</g>
</g>
<!-- Node1&#45;&gt;Node15 -->
<g id="edge28" class="edge"><title>Node1&#45;&gt;Node15</title>
<path fill="none" stroke="midnightblue" d="M1014,-214.348C1014,-190.254 1014,-149.308 1014,-131.591"/>
<polygon fill="midnightblue" stroke="midnightblue" points="1010.5,-214.368 1014,-224.368 1017.5,-214.369 1010.5,-214.368"/>
</g>
<!-- Node16 -->
<g id="node16" class="node"><title>Node16</title>
<g id="a_node16"><a xlink:href="_i_graphics_path_base_8h_source.html" target="_top" xlink:title="IGraphicsPathBase.h">
<polygon fill="white" stroke="black" points="1209,-168.5 1209,-187.5 1319,-187.5 1319,-168.5 1209,-168.5"/>
<text text-anchor="middle" x="1264" y="-175.5" font-family="Helvetica,sans-Serif" font-size="10.00">IGraphicsPathBase.h</text>
</a>
</g>
</g>
<!-- Node1&#45;&gt;Node16 -->
<g id="edge17" class="edge"><title>Node1&#45;&gt;Node16</title>
<path fill="none" stroke="midnightblue" d="M1057.6,-223.582C1104.6,-213.43 1178.77,-197.409 1224.23,-187.59"/>
<polygon fill="midnightblue" stroke="midnightblue" points="1056.75,-220.185 1047.72,-225.717 1058.23,-227.027 1056.75,-220.185"/>
</g>
<!-- Node23 -->
<g id="node23" class="node"><title>Node23</title>
<g id="a_node23"><a xlink:href="_i_graphics_lice_8h_source.html" target="_top" xlink:title="IGraphicsLice.h">
<polygon fill="white" stroke="black" points="1081.5,-168.5 1081.5,-187.5 1166.5,-187.5 1166.5,-168.5 1081.5,-168.5"/>
<text text-anchor="middle" x="1124" y="-175.5" font-family="Helvetica,sans-Serif" font-size="10.00">IGraphicsLice.h</text>
</a>
</g>
</g>
<!-- Node1&#45;&gt;Node23 -->
<g id="edge25" class="edge"><title>Node1&#45;&gt;Node23</title>
<path fill="none" stroke="midnightblue" d="M1040.76,-219.862C1061.16,-209.849 1088.67,-196.346 1106.37,-187.655"/>
<polygon fill="midnightblue" stroke="midnightblue" points="1039.11,-216.775 1031.67,-224.324 1042.19,-223.059 1039.11,-216.775"/>
</g>
<!-- Node3 -->
<g id="node3" class="node"><title>Node3</title>
<g id="a_node3"><a xlink:href="_i_control_8cpp_source.html" target="_top" xlink:title="IControl.cpp">
<polygon fill="white" stroke="black" points="326,-112.5 326,-131.5 396,-131.5 396,-112.5 326,-112.5"/>
<text text-anchor="middle" x="361" y="-119.5" font-family="Helvetica,sans-Serif" font-size="10.00">IControl.cpp</text>
</a>
</g>
</g>
<!-- Node2&#45;&gt;Node3 -->
<g id="edge2" class="edge"><title>Node2&#45;&gt;Node3</title>
<path fill="none" stroke="midnightblue" d="M544.505,-167.436C502.474,-157.258 436.591,-141.304 396.255,-131.537"/>
<polygon fill="midnightblue" stroke="midnightblue" points="543.844,-170.877 554.387,-169.829 545.492,-164.074 543.844,-170.877"/>
</g>
<!-- Node4 -->
<g id="node4" class="node"><title>Node4</title>
<g id="a_node4"><a xlink:href="_i_v_drop_down_list_control_8h_source.html" target="_top" xlink:title="IVDropDownListControl.h">
<polygon fill="white" stroke="black" points="452,-112.5 452,-131.5 580,-131.5 580,-112.5 452,-112.5"/>
<text text-anchor="middle" x="516" y="-119.5" font-family="Helvetica,sans-Serif" font-size="10.00">IVDropDownListControl.h</text>
</a>
</g>
</g>
<!-- Node2&#45;&gt;Node4 -->
<g id="edge3" class="edge"><title>Node2&#45;&gt;Node4</title>
<path fill="none" stroke="midnightblue" d="M565.238,-162.101C553,-152.382 537.441,-140.027 527.124,-131.834"/>
<polygon fill="midnightblue" stroke="midnightblue" points="563.067,-164.846 573.075,-168.324 567.42,-159.364 563.067,-164.846"/>
</g>
<!-- Node5 -->
<g id="node5" class="node"><title>Node5</title>
<g id="a_node5"><a xlink:href="_i_v_keyboard_control_8h_source.html" target="_top" xlink:title="IVKeyboardControl.h">
<polygon fill="white" stroke="black" points="598.5,-112.5 598.5,-131.5 705.5,-131.5 705.5,-112.5 598.5,-112.5"/>
<text text-anchor="middle" x="652" y="-119.5" font-family="Helvetica,sans-Serif" font-size="10.00">IVKeyboardControl.h</text>
</a>
</g>
</g>
<!-- Node2&#45;&gt;Node5 -->
<g id="edge4" class="edge"><title>Node2&#45;&gt;Node5</title>
<path fill="none" stroke="midnightblue" d="M602.762,-162.101C615,-152.382 630.559,-140.027 640.876,-131.834"/>
<polygon fill="midnightblue" stroke="midnightblue" points="600.58,-159.364 594.925,-168.324 604.933,-164.846 600.58,-159.364"/>
</g>
<!-- Node6 -->
<g id="node6" class="node"><title>Node6</title>
<g id="a_node6"><a xlink:href="_i_v_meter_control_8h_source.html" target="_top" xlink:title="IVMeterControl.h">
<polygon fill="white" stroke="black" points="723.5,-112.5 723.5,-131.5 814.5,-131.5 814.5,-112.5 723.5,-112.5"/>
<text text-anchor="middle" x="769" y="-119.5" font-family="Helvetica,sans-Serif" font-size="10.00">IVMeterControl.h</text>
</a>
</g>
</g>
<!-- Node2&#45;&gt;Node6 -->
<g id="edge5" class="edge"><title>Node2&#45;&gt;Node6</title>
<path fill="none" stroke="midnightblue" d="M623.166,-165.568C658.065,-155.381 708.349,-140.703 739.823,-131.516"/>
<polygon fill="midnightblue" stroke="midnightblue" points="621.933,-162.282 613.314,-168.444 623.894,-169.001 621.933,-162.282"/>
</g>
<!-- Node8 -->
<g id="node8" class="node"><title>Node8</title>
<g id="a_node8"><a xlink:href="_i_controls_8h.html" target="_top" xlink:title="A collection of IControls for common UI widgets, such as knobs, sliders, switches. ">
<polygon fill="white" stroke="black" points="832.5,-112.5 832.5,-131.5 897.5,-131.5 897.5,-112.5 832.5,-112.5"/>
<text text-anchor="middle" x="865" y="-119.5" font-family="Helvetica,sans-Serif" font-size="10.00">IControls.h</text>
</a>
</g>
</g>
<!-- Node2&#45;&gt;Node8 -->
<g id="edge7" class="edge"><title>Node2&#45;&gt;Node8</title>
<path fill="none" stroke="midnightblue" d="M623.732,-169.833C671.206,-161.197 753.009,-146.086 823,-132 826.07,-131.382 829.264,-130.725 832.457,-130.057"/>
<polygon fill="midnightblue" stroke="midnightblue" points="623.068,-166.396 613.854,-171.626 624.319,-173.283 623.068,-166.396"/>
</g>
<!-- Node10 -->
<g id="node10" class="node"><title>Node10</title>
<g id="a_node10"><a xlink:href="_i_graphics_live_edit_8h_source.html" target="_top" xlink:title="IGraphicsLiveEdit.h">
<polygon fill="white" stroke="black" points="66,-112.5 66,-131.5 168,-131.5 168,-112.5 66,-112.5"/>
<text text-anchor="middle" x="117" y="-119.5" font-family="Helvetica,sans-Serif" font-size="10.00">IGraphicsLiveEdit.h</text>
</a>
</g>
</g>
<!-- Node2&#45;&gt;Node10 -->
<g id="edge9" class="edge"><title>Node2&#45;&gt;Node10</title>
<path fill="none" stroke="midnightblue" d="M544.22,-173.119C471.304,-165.89 311.381,-149.501 177,-132 174.075,-131.619 171.073,-131.214 168.044,-130.794"/>
<polygon fill="midnightblue" stroke="midnightblue" points="544.038,-176.618 554.334,-174.118 544.726,-169.652 544.038,-176.618"/>
</g>
<!-- Node2&#45;&gt;Node11 -->
<g id="edge11" class="edge"><title>Node2&#45;&gt;Node11</title>
<path fill="none" stroke="midnightblue" d="M544.209,-176.158C427.922,-173.346 94.472,-162.663 57,-132 40.0761,-118.151 37.7148,-90.1134 37.6888,-75.8157"/>
<polygon fill="midnightblue" stroke="midnightblue" points="544.37,-179.662 554.449,-176.398 544.534,-172.664 544.37,-179.662"/>
</g>
<!-- Node12 -->
<g id="node12" class="node"><title>Node12</title>
<g id="a_node12"><a xlink:href="_i_graphics_mac_8mm_source.html" target="_top" xlink:title="IGraphicsMac.mm">
<polygon fill="white" stroke="black" points="997.5,-56.5 997.5,-75.5 1094.5,-75.5 1094.5,-56.5 997.5,-56.5"/>
<text text-anchor="middle" x="1046" y="-63.5" font-family="Helvetica,sans-Serif" font-size="10.00">IGraphicsMac.mm</text>
</a>
</g>
</g>
<!-- Node2&#45;&gt;Node12 -->
<g id="edge12" class="edge"><title>Node2&#45;&gt;Node12</title>
<path fill="none" stroke="midnightblue" d="M623.675,-175.705C685.399,-172.753 807.557,-163.138 906,-132 924.573,-126.125 927.43,-120.411 945,-112 972.703,-98.7373 1005.23,-84.4749 1025.73,-75.6431"/>
<polygon fill="midnightblue" stroke="midnightblue" points="623.42,-172.213 613.585,-176.153 623.731,-179.206 623.42,-172.213"/>
</g>
<!-- Node13 -->
<g id="node13" class="node"><title>Node13</title>
<g id="a_node13"><a xlink:href="_i_graphics_mac__view_8mm_source.html" target="_top" xlink:title="IGraphicsMac_view.mm">
<polygon fill="white" stroke="black" points="186,-112.5 186,-131.5 308,-131.5 308,-112.5 186,-112.5"/>
<text text-anchor="middle" x="247" y="-119.5" font-family="Helvetica,sans-Serif" font-size="10.00">IGraphicsMac_view.mm</text>
</a>
</g>
</g>
<!-- Node2&#45;&gt;Node13 -->
<g id="edge13" class="edge"><title>Node2&#45;&gt;Node13</title>
<path fill="none" stroke="midnightblue" d="M544.453,-170.663C483.89,-160.959 368.072,-142.4 300.204,-131.525"/>
<polygon fill="midnightblue" stroke="midnightblue" points="543.961,-174.129 554.389,-172.255 545.069,-167.217 543.961,-174.129"/>
</g>
<!-- Node14 -->
<g id="node14" class="node"><title>Node14</title>
<g id="a_node14"><a xlink:href="_i_graphics_win_8cpp_source.html" target="_top" xlink:title="IGraphicsWin.cpp">
<polygon fill="white" stroke="black" points="907.5,-0.5 907.5,-19.5 1002.5,-19.5 1002.5,-0.5 907.5,-0.5"/>
<text text-anchor="middle" x="955" y="-7.5" font-family="Helvetica,sans-Serif" font-size="10.00">IGraphicsWin.cpp</text>
</a>
</g>
</g>
<!-- Node2&#45;&gt;Node14 -->
<g id="edge14" class="edge"><title>Node2&#45;&gt;Node14</title>
<path fill="none" stroke="midnightblue" d="M544.094,-172.939C492.569,-166.118 412.883,-149.265 443,-112 501.089,-40.1252 791.724,-18.6649 907.397,-12.9122"/>
<polygon fill="midnightblue" stroke="midnightblue" points="543.942,-176.447 554.298,-174.209 544.807,-169.5 543.942,-176.447"/>
</g>
<!-- Node2&#45;&gt;Node15 -->
<g id="edge15" class="edge"><title>Node2&#45;&gt;Node15</title>
<path fill="none" stroke="midnightblue" d="M623.622,-172.024C699.313,-162.519 864.86,-141.729 954.122,-130.52"/>
<polygon fill="midnightblue" stroke="midnightblue" points="623.042,-168.57 613.556,-173.288 623.914,-175.515 623.042,-168.57"/>
</g>
<!-- Node7 -->
<g id="node7" class="node"><title>Node7</title>
<g id="a_node7"><a xlink:href="_i_v_meter_control_8cpp_source.html" target="_top" xlink:title="IVMeterControl.cpp">
<polygon fill="white" stroke="black" points="713.5,-56.5 713.5,-75.5 814.5,-75.5 814.5,-56.5 713.5,-56.5"/>
<text text-anchor="middle" x="764" y="-63.5" font-family="Helvetica,sans-Serif" font-size="10.00">IVMeterControl.cpp</text>
</a>
</g>
</g>
<!-- Node6&#45;&gt;Node7 -->
<g id="edge6" class="edge"><title>Node6&#45;&gt;Node7</title>
<path fill="none" stroke="midnightblue" d="M767.25,-102.101C766.42,-93.1357 765.468,-82.8579 764.81,-75.7511"/>
<polygon fill="midnightblue" stroke="midnightblue" points="763.767,-102.448 768.174,-112.083 770.737,-101.803 763.767,-102.448"/>
</g>
<!-- Node9 -->
<g id="node9" class="node"><title>Node9</title>
<g id="a_node9"><a xlink:href="_i_controls_8cpp_source.html" target="_top" xlink:title="IControls.cpp">
<polygon fill="white" stroke="black" points="832.5,-56.5 832.5,-75.5 907.5,-75.5 907.5,-56.5 832.5,-56.5"/>
<text text-anchor="middle" x="870" y="-63.5" font-family="Helvetica,sans-Serif" font-size="10.00">IControls.cpp</text>
</a>
</g>
</g>
<!-- Node8&#45;&gt;Node9 -->
<g id="edge8" class="edge"><title>Node8&#45;&gt;Node9</title>
<path fill="none" stroke="midnightblue" d="M866.75,-102.101C867.58,-93.1357 868.532,-82.8579 869.19,-75.7511"/>
<polygon fill="midnightblue" stroke="midnightblue" points="863.263,-101.803 865.826,-112.083 870.233,-102.448 863.263,-101.803"/>
</g>
<!-- Node10&#45;&gt;Node11 -->
<g id="edge10" class="edge"><title>Node10&#45;&gt;Node11</title>
<path fill="none" stroke="midnightblue" d="M95.9657,-106.622C81.5339,-96.7574 62.8585,-83.9919 50.6612,-75.6545"/>
<polygon fill="midnightblue" stroke="midnightblue" points="94.0765,-109.57 104.307,-112.324 98.0267,-103.791 94.0765,-109.57"/>
</g>
<!-- Node17 -->
<g id="node17" class="node"><title>Node17</title>
<g id="a_node17"><a xlink:href="_i_graphics_a_g_g_8h_source.html" target="_top" xlink:title="IGraphicsAGG.h">
<polygon fill="white" stroke="black" points="1204.5,-112.5 1204.5,-131.5 1293.5,-131.5 1293.5,-112.5 1204.5,-112.5"/>
<text text-anchor="middle" x="1249" y="-119.5" font-family="Helvetica,sans-Serif" font-size="10.00">IGraphicsAGG.h</text>
</a>
</g>
</g>
<!-- Node16&#45;&gt;Node17 -->
<g id="edge18" class="edge"><title>Node16&#45;&gt;Node17</title>
<path fill="none" stroke="midnightblue" d="M1258.83,-158.396C1256.32,-149.362 1253.43,-138.936 1251.43,-131.751"/>
<polygon fill="midnightblue" stroke="midnightblue" points="1255.47,-159.385 1261.52,-168.083 1262.22,-157.511 1255.47,-159.385"/>
</g>
<!-- Node19 -->
<g id="node19" class="node"><title>Node19</title>
<g id="a_node19"><a xlink:href="_i_graphics_cairo_8h_source.html" target="_top" xlink:title="IGraphicsCairo.h">
<polygon fill="white" stroke="black" points="1439,-112.5 1439,-131.5 1529,-131.5 1529,-112.5 1439,-112.5"/>
<text text-anchor="middle" x="1484" y="-119.5" font-family="Helvetica,sans-Serif" font-size="10.00">IGraphicsCairo.h</text>
</a>
</g>
</g>
<!-- Node16&#45;&gt;Node19 -->
<g id="edge20" class="edge"><title>Node16&#45;&gt;Node19</title>
<path fill="none" stroke="midnightblue" d="M1308.72,-166.024C1350.28,-155.823 1411.31,-140.841 1449.3,-131.516"/>
<polygon fill="midnightblue" stroke="midnightblue" points="1307.74,-162.661 1298.86,-168.444 1309.41,-169.459 1307.74,-162.661"/>
</g>
<!-- Node21 -->
<g id="node21" class="node"><title>Node21</title>
<g id="a_node21"><a xlink:href="_i_graphics_nano_v_g_8h_source.html" target="_top" xlink:title="IGraphicsNanoVG.h">
<polygon fill="white" stroke="black" points="1312,-112.5 1312,-131.5 1416,-131.5 1416,-112.5 1312,-112.5"/>
<text text-anchor="middle" x="1364" y="-119.5" font-family="Helvetica,sans-Serif" font-size="10.00">IGraphicsNanoVG.h</text>
</a>
</g>
</g>
<!-- Node16&#45;&gt;Node21 -->
<g id="edge23" class="edge"><title>Node16&#45;&gt;Node21</title>
<path fill="none" stroke="midnightblue" d="M1289.09,-163.453C1307.55,-153.483 1332.1,-140.228 1347.97,-131.655"/>
<polygon fill="midnightblue" stroke="midnightblue" points="1287.2,-160.493 1280.07,-168.324 1290.53,-166.652 1287.2,-160.493"/>
</g>
<!-- Node18 -->
<g id="node18" class="node"><title>Node18</title>
<g id="a_node18"><a xlink:href="_i_graphics_a_g_g_8cpp_source.html" target="_top" xlink:title="IGraphicsAGG.cpp">
<polygon fill="white" stroke="black" points="1186.5,-56.5 1186.5,-75.5 1285.5,-75.5 1285.5,-56.5 1186.5,-56.5"/>
<text text-anchor="middle" x="1236" y="-63.5" font-family="Helvetica,sans-Serif" font-size="10.00">IGraphicsAGG.cpp</text>
</a>
</g>
</g>
<!-- Node17&#45;&gt;Node18 -->
<g id="edge19" class="edge"><title>Node17&#45;&gt;Node18</title>
<path fill="none" stroke="midnightblue" d="M1244.45,-102.101C1242.29,-93.1357 1239.82,-82.8579 1238.11,-75.7511"/>
<polygon fill="midnightblue" stroke="midnightblue" points="1241.11,-103.18 1246.85,-112.083 1247.92,-101.542 1241.11,-103.18"/>
</g>
<!-- Node20 -->
<g id="node20" class="node"><title>Node20</title>
<g id="a_node20"><a xlink:href="_i_graphics_cairo_8cpp_source.html" target="_top" xlink:title="IGraphicsCairo.cpp">
<polygon fill="white" stroke="black" points="1436.5,-56.5 1436.5,-75.5 1537.5,-75.5 1537.5,-56.5 1436.5,-56.5"/>
<text text-anchor="middle" x="1487" y="-63.5" font-family="Helvetica,sans-Serif" font-size="10.00">IGraphicsCairo.cpp</text>
</a>
</g>
</g>
<!-- Node19&#45;&gt;Node20 -->
<g id="edge21" class="edge"><title>Node19&#45;&gt;Node20</title>
<path fill="none" stroke="midnightblue" d="M1485.07,-101.805C1485.56,-92.9102 1486.12,-82.7798 1486.51,-75.7511"/>
<polygon fill="midnightblue" stroke="midnightblue" points="1481.56,-101.904 1484.5,-112.083 1488.54,-102.293 1481.56,-101.904"/>
</g>
<!-- Node20&#45;&gt;Node14 -->
<g id="edge22" class="edge"><title>Node20&#45;&gt;Node14</title>
<path fill="none" stroke="midnightblue" d="M1426.17,-55.9616C1264.65,-36.3874 1086.18,-21.3429 1002.66,-14.69"/>
<polygon fill="midnightblue" stroke="midnightblue" points="1425.94,-59.4595 1436.29,-57.197 1426.78,-52.5111 1425.94,-59.4595"/>
</g>
<!-- Node22 -->
<g id="node22" class="node"><title>Node22</title>
<g id="a_node22"><a xlink:href="_i_graphics_nano_v_g_8cpp_source.html" target="_top" xlink:title="IGraphicsNanoVG.cpp">
<polygon fill="white" stroke="black" points="1303.5,-56.5 1303.5,-75.5 1418.5,-75.5 1418.5,-56.5 1303.5,-56.5"/>
<text text-anchor="middle" x="1361" y="-63.5" font-family="Helvetica,sans-Serif" font-size="10.00">IGraphicsNanoVG.cpp</text>
</a>
</g>
</g>
<!-- Node21&#45;&gt;Node22 -->
<g id="edge24" class="edge"><title>Node21&#45;&gt;Node22</title>
<path fill="none" stroke="midnightblue" d="M1362.93,-101.805C1362.44,-92.9102 1361.88,-82.7798 1361.49,-75.7511"/>
<polygon fill="midnightblue" stroke="midnightblue" points="1359.46,-102.293 1363.5,-112.083 1366.44,-101.904 1359.46,-102.293"/>
</g>
<!-- Node24 -->
<g id="node24" class="node"><title>Node24</title>
<g id="a_node24"><a xlink:href="_i_graphics_lice_8cpp_source.html" target="_top" xlink:title="IGraphicsLice.cpp">
<polygon fill="white" stroke="black" points="1091.5,-112.5 1091.5,-131.5 1186.5,-131.5 1186.5,-112.5 1091.5,-112.5"/>
<text text-anchor="middle" x="1139" y="-119.5" font-family="Helvetica,sans-Serif" font-size="10.00">IGraphicsLice.cpp</text>
</a>
</g>
</g>
<!-- Node23&#45;&gt;Node24 -->
<g id="edge26" class="edge"><title>Node23&#45;&gt;Node24</title>
<path fill="none" stroke="midnightblue" d="M1129.17,-158.396C1131.68,-149.362 1134.57,-138.936 1136.57,-131.751"/>
<polygon fill="midnightblue" stroke="midnightblue" points="1125.78,-157.511 1126.48,-168.083 1132.53,-159.385 1125.78,-157.511"/>
</g>
<!-- Node24&#45;&gt;Node12 -->
<g id="edge27" class="edge"><title>Node24&#45;&gt;Node12</title>
<path fill="none" stroke="midnightblue" d="M1115.19,-107.177C1098.08,-97.2407 1075.53,-84.1492 1060.9,-75.6545"/>
<polygon fill="midnightblue" stroke="midnightblue" points="1113.65,-110.329 1124.06,-112.324 1117.17,-104.276 1113.65,-110.329"/>
</g>
</g>
</svg>
