<?xml version="1.0" encoding="UTF-8" standalone="no"?>
<!DOCTYPE svg PUBLIC "-//W3C//DTD SVG 1.1//EN"
 "http://www.w3.org/Graphics/SVG/1.1/DTD/svg11.dtd">
<!-- Generated by graphviz version 2.36.0 (20140111.2315)
 -->
<!-- Title: IGraphics.h Pages: 1 -->
<svg width="1015pt" height="364pt"
 viewBox="0.00 0.00 1015.03 364.00" xmlns="http://www.w3.org/2000/svg" xmlns:xlink="http://www.w3.org/1999/xlink">
<g id="graph0" class="graph" transform="scale(1 1) rotate(0) translate(4 360)">
<title>IGraphics.h</title>
<polygon fill="white" stroke="none" points="-4,4 -4,-360 1011.03,-360 1011.03,4 -4,4"/>
<!-- Node1 -->
<g id="node1" class="node"><title>Node1</title>
<polygon fill="#bfbfbf" stroke="black" points="444.533,-336.5 444.533,-355.5 511.533,-355.5 511.533,-336.5 444.533,-336.5"/>
<text text-anchor="middle" x="478.033" y="-343.5" font-family="Helvetica,sans-Serif" font-size="10.00">IGraphics.h</text>
</g>
<!-- Node2 -->
<g id="node2" class="node"><title>Node2</title>
<g id="a_node2"><a xlink:href="_i_graphics_constants_8h_source.html" target="_top" xlink:title="IGraphicsConstants.h">
<polygon fill="white" stroke="black" points="826.033,-224.5 826.033,-243.5 938.033,-243.5 938.033,-224.5 826.033,-224.5"/>
<text text-anchor="middle" x="882.033" y="-231.5" font-family="Helvetica,sans-Serif" font-size="10.00">IGraphicsConstants.h</text>
</a>
</g>
</g>
<!-- Node1&#45;&gt;Node2 -->
<g id="edge1" class="edge"><title>Node1&#45;&gt;Node2</title>
<path fill="none" stroke="midnightblue" d="M482.814,-336.488C491.396,-322.108 510.89,-293.276 536.033,-280 536.804,-279.593 715.55,-256.48 815.789,-243.543"/>
<polygon fill="midnightblue" stroke="midnightblue" points="816.359,-246.999 825.829,-242.248 815.463,-240.056 816.359,-246.999"/>
</g>
<!-- Node19 -->
<g id="node19" class="node"><title>Node19</title>
<g id="a_node19"><a xlink:href="_i_graphics_structs_8h_source.html" target="_top" xlink:title="IGraphicsStructs.h">
<polygon fill="white" stroke="black" points="391.033,-280.5 391.033,-299.5 489.033,-299.5 489.033,-280.5 391.033,-280.5"/>
<text text-anchor="middle" x="440.033" y="-287.5" font-family="Helvetica,sans-Serif" font-size="10.00">IGraphicsStructs.h</text>
</a>
</g>
</g>
<!-- Node1&#45;&gt;Node19 -->
<g id="edge25" class="edge"><title>Node1&#45;&gt;Node19</title>
<path fill="none" stroke="midnightblue" d="M471.758,-336.083C466.391,-328.455 458.516,-317.264 451.955,-307.941"/>
<polygon fill="midnightblue" stroke="midnightblue" points="454.809,-305.915 446.191,-299.751 449.084,-309.943 454.809,-305.915"/>
</g>
<!-- Node26 -->
<g id="node26" class="node"><title>Node26</title>
<g id="a_node26"><a xlink:href="_i_graphics_utilites_8h_source.html" target="_top" xlink:title="IGraphicsUtilites.h">
<polygon fill="white" stroke="black" points="545.033,-280.5 545.033,-299.5 643.033,-299.5 643.033,-280.5 545.033,-280.5"/>
<text text-anchor="middle" x="594.033" y="-287.5" font-family="Helvetica,sans-Serif" font-size="10.00">IGraphicsUtilites.h</text>
</a>
</g>
</g>
<!-- Node1&#45;&gt;Node26 -->
<g id="edge38" class="edge"><title>Node1&#45;&gt;Node26</title>
<path fill="none" stroke="midnightblue" d="M496.414,-336.444C515.25,-327.675 544.765,-313.935 566.413,-303.858"/>
<polygon fill="midnightblue" stroke="midnightblue" points="568.15,-306.91 575.739,-299.516 565.196,-300.564 568.15,-306.91"/>
</g>
<!-- Node27 -->
<g id="node27" class="node"><title>Node27</title>
<g id="a_node27"><a xlink:href="_i_popup_menu_8h.html" target="_top" xlink:title="A class for setting the contents of a pop up menu. ">
<polygon fill="white" stroke="black" points="104.033,-112.5 104.033,-131.5 184.033,-131.5 184.033,-112.5 104.033,-112.5"/>
<text text-anchor="middle" x="144.033" y="-119.5" font-family="Helvetica,sans-Serif" font-size="10.00">IPopupMenu.h</text>
</a>
</g>
</g>
<!-- Node1&#45;&gt;Node27 -->
<g id="edge39" class="edge"><title>Node1&#45;&gt;Node27</title>
<path fill="none" stroke="midnightblue" d="M444.222,-339.34C390.514,-328.865 284.767,-302.01 216.033,-244 182.375,-215.593 160.43,-167.235 150.383,-141.081"/>
<polygon fill="midnightblue" stroke="midnightblue" points="153.648,-139.82 146.908,-131.645 147.079,-142.239 153.648,-139.82"/>
</g>
<!-- Node3 -->
<g id="node3" class="node"><title>Node3</title>
<g id="a_node3"><a xlink:href="_i_plug_platform_8h.html" target="_top" xlink:title="Include to get consistently named preprocessor macros for different platforms and logging functionali...">
<polygon fill="white" stroke="black" points="661.033,-168.5 661.033,-187.5 745.033,-187.5 745.033,-168.5 661.033,-168.5"/>
<text text-anchor="middle" x="703.033" y="-175.5" font-family="Helvetica,sans-Serif" font-size="10.00">IPlugPlatform.h</text>
</a>
</g>
</g>
<!-- Node2&#45;&gt;Node3 -->
<g id="edge2" class="edge"><title>Node2&#45;&gt;Node3</title>
<path fill="none" stroke="midnightblue" d="M853.67,-224.444C823.295,-215.28 774.924,-200.688 741.217,-190.519"/>
<polygon fill="midnightblue" stroke="midnightblue" points="741.848,-187.054 731.264,-187.516 739.827,-193.756 741.848,-187.054"/>
</g>
<!-- Node4 -->
<g id="node4" class="node"><title>Node4</title>
<polygon fill="white" stroke="#bfbfbf" points="353.033,-0.5 353.033,-19.5 399.033,-19.5 399.033,-0.5 353.033,-0.5"/>
<text text-anchor="middle" x="376.033" y="-7.5" font-family="Helvetica,sans-Serif" font-size="10.00">cstring</text>
</g>
<!-- Node3&#45;&gt;Node4 -->
<g id="edge3" class="edge"><title>Node3&#45;&gt;Node4</title>
<path fill="none" stroke="midnightblue" d="M660.857,-171.254C601.265,-161.241 491.709,-135.648 420.033,-76 404.525,-63.0936 392.237,-43.3733 384.632,-29.0384"/>
<polygon fill="midnightblue" stroke="midnightblue" points="387.567,-27.0841 379.943,-19.7265 381.315,-30.2322 387.567,-27.0841"/>
</g>
<!-- Node5 -->
<g id="node5" class="node"><title>Node5</title>
<polygon fill="white" stroke="#bfbfbf" points="887.533,-0.5 887.533,-19.5 932.533,-19.5 932.533,-0.5 887.533,-0.5"/>
<text text-anchor="middle" x="910.033" y="-7.5" font-family="Helvetica,sans-Serif" font-size="10.00">cstdlib</text>
</g>
<!-- Node3&#45;&gt;Node5 -->
<g id="edge4" class="edge"><title>Node3&#45;&gt;Node5</title>
<path fill="none" stroke="midnightblue" d="M727.419,-168.465C764.493,-154.407 835.33,-123.156 879.033,-76 891.494,-62.5547 899.85,-43.188 904.716,-29.0937"/>
<polygon fill="midnightblue" stroke="midnightblue" points="908.063,-30.1194 907.767,-19.5287 901.394,-27.9923 908.063,-30.1194"/>
</g>
<!-- Node6 -->
<g id="node6" class="node"><title>Node6</title>
<g id="a_node6"><a xlink:href="_i_plug_logger_8h.html" target="_top" xlink:title="IPlug logging a.k.a tracing functionailty. ">
<polygon fill="white" stroke="black" points="557.533,-112.5 557.533,-131.5 634.533,-131.5 634.533,-112.5 557.533,-112.5"/>
<text text-anchor="middle" x="596.033" y="-119.5" font-family="Helvetica,sans-Serif" font-size="10.00">IPlugLogger.h</text>
</a>
</g>
</g>
<!-- Node3&#45;&gt;Node6 -->
<g id="edge5" class="edge"><title>Node3&#45;&gt;Node6</title>
<path fill="none" stroke="midnightblue" d="M685.842,-168.324C668.682,-159.664 642.088,-146.242 622.286,-136.249"/>
<polygon fill="midnightblue" stroke="midnightblue" points="623.687,-133.035 613.182,-131.655 620.533,-139.285 623.687,-133.035"/>
</g>
<!-- Node6&#45;&gt;Node4 -->
<g id="edge10" class="edge"><title>Node6&#45;&gt;Node4</title>
<path fill="none" stroke="midnightblue" d="M557.364,-113.753C526.86,-106.961 483.949,-94.9646 450.033,-76 426.863,-63.0435 404.58,-41.8964 390.63,-27.2581"/>
<polygon fill="midnightblue" stroke="midnightblue" points="393.155,-24.8333 383.785,-19.8886 388.026,-29.5974 393.155,-24.8333"/>
</g>
<!-- Node7 -->
<g id="node7" class="node"><title>Node7</title>
<polygon fill="white" stroke="#bfbfbf" points="424.533,-0.5 424.533,-19.5 467.533,-19.5 467.533,-0.5 424.533,-0.5"/>
<text text-anchor="middle" x="446.033" y="-7.5" font-family="Helvetica,sans-Serif" font-size="10.00">cstdio</text>
</g>
<!-- Node6&#45;&gt;Node7 -->
<g id="edge6" class="edge"><title>Node6&#45;&gt;Node7</title>
<path fill="none" stroke="midnightblue" d="M557.386,-117.232C528.207,-112.386 489.192,-101.309 465.033,-76 453.247,-63.6526 448.718,-44.4036 447.006,-30.0528"/>
<polygon fill="midnightblue" stroke="midnightblue" points="450.472,-29.4935 446.152,-19.8193 443.496,-30.0758 450.472,-29.4935"/>
</g>
<!-- Node8 -->
<g id="node8" class="node"><title>Node8</title>
<polygon fill="white" stroke="#bfbfbf" points="713.033,-0.5 713.033,-19.5 759.033,-19.5 759.033,-0.5 713.033,-0.5"/>
<text text-anchor="middle" x="736.033" y="-7.5" font-family="Helvetica,sans-Serif" font-size="10.00">cctype</text>
</g>
<!-- Node6&#45;&gt;Node8 -->
<g id="edge7" class="edge"><title>Node6&#45;&gt;Node8</title>
<path fill="none" stroke="midnightblue" d="M634.837,-118.316C664.707,-114.078 704.566,-103.292 727.033,-76 737.546,-63.2302 739.029,-44.0379 738.343,-29.8153"/>
<polygon fill="midnightblue" stroke="midnightblue" points="741.816,-29.3499 737.46,-19.6922 734.843,-29.9588 741.816,-29.3499"/>
</g>
<!-- Node9 -->
<g id="node9" class="node"><title>Node9</title>
<polygon fill="white" stroke="#bfbfbf" points="474.533,-56.5 474.533,-75.5 523.533,-75.5 523.533,-56.5 474.533,-56.5"/>
<text text-anchor="middle" x="499.033" y="-63.5" font-family="Helvetica,sans-Serif" font-size="10.00">cstdarg</text>
</g>
<!-- Node6&#45;&gt;Node9 -->
<g id="edge8" class="edge"><title>Node6&#45;&gt;Node9</title>
<path fill="none" stroke="midnightblue" d="M580.449,-112.324C565.034,-103.743 541.221,-90.486 523.324,-80.5224"/>
<polygon fill="midnightblue" stroke="midnightblue" points="525.019,-77.4606 514.579,-75.6545 521.614,-83.5767 525.019,-77.4606"/>
</g>
<!-- Node10 -->
<g id="node10" class="node"><title>Node10</title>
<polygon fill="white" stroke="#bfbfbf" points="542.033,-56.5 542.033,-75.5 588.033,-75.5 588.033,-56.5 542.033,-56.5"/>
<text text-anchor="middle" x="565.033" y="-63.5" font-family="Helvetica,sans-Serif" font-size="10.00">cstdint</text>
</g>
<!-- Node6&#45;&gt;Node10 -->
<g id="edge9" class="edge"><title>Node6&#45;&gt;Node10</title>
<path fill="none" stroke="midnightblue" d="M590.914,-112.083C586.626,-104.613 580.375,-93.7244 575.091,-84.5199"/>
<polygon fill="midnightblue" stroke="midnightblue" points="578.071,-82.6811 570.057,-75.7511 572,-86.1662 578.071,-82.6811"/>
</g>
<!-- Node11 -->
<g id="node11" class="node"><title>Node11</title>
<polygon fill="white" stroke="#bfbfbf" points="606.533,-56.5 606.533,-75.5 647.533,-75.5 647.533,-56.5 606.533,-56.5"/>
<text text-anchor="middle" x="627.033" y="-63.5" font-family="Helvetica,sans-Serif" font-size="10.00">ctime</text>
</g>
<!-- Node6&#45;&gt;Node11 -->
<g id="edge11" class="edge"><title>Node6&#45;&gt;Node11</title>
<path fill="none" stroke="midnightblue" d="M601.152,-112.083C605.441,-104.613 611.692,-93.7244 616.976,-84.5199"/>
<polygon fill="midnightblue" stroke="midnightblue" points="620.066,-86.1662 622.01,-75.7511 613.995,-82.6811 620.066,-86.1662"/>
</g>
<!-- Node12 -->
<g id="node12" class="node"><title>Node12</title>
<polygon fill="white" stroke="#bfbfbf" points="210.533,-56.5 210.533,-75.5 259.533,-75.5 259.533,-56.5 210.533,-56.5"/>
<text text-anchor="middle" x="235.033" y="-63.5" font-family="Helvetica,sans-Serif" font-size="10.00">cassert</text>
</g>
<!-- Node6&#45;&gt;Node12 -->
<g id="edge12" class="edge"><title>Node6&#45;&gt;Node12</title>
<path fill="none" stroke="midnightblue" d="M557.519,-117.24C497.916,-111.086 379.615,-97.5414 269.756,-75.9188"/>
<polygon fill="midnightblue" stroke="midnightblue" points="270.325,-72.4635 259.834,-73.9389 268.956,-79.3281 270.325,-72.4635"/>
</g>
<!-- Node13 -->
<g id="node13" class="node"><title>Node13</title>
<polygon fill="white" stroke="#bfbfbf" points="278.033,-56.5 278.033,-75.5 342.033,-75.5 342.033,-56.5 278.033,-56.5"/>
<text text-anchor="middle" x="310.033" y="-63.5" font-family="Helvetica,sans-Serif" font-size="10.00">wdlstring.h</text>
</g>
<!-- Node6&#45;&gt;Node13 -->
<g id="edge13" class="edge"><title>Node6&#45;&gt;Node13</title>
<path fill="none" stroke="midnightblue" d="M557.462,-113.717C503.922,-103.608 407.44,-85.3914 352.1,-74.9427"/>
<polygon fill="midnightblue" stroke="midnightblue" points="352.741,-71.502 342.266,-73.0858 351.443,-78.3805 352.741,-71.502"/>
</g>
<!-- Node14 -->
<g id="node14" class="node"><title>Node14</title>
<polygon fill="white" stroke="#bfbfbf" points="666.033,-56.5 666.033,-75.5 718.033,-75.5 718.033,-56.5 666.033,-56.5"/>
<text text-anchor="middle" x="692.033" y="-63.5" font-family="Helvetica,sans-Serif" font-size="10.00">mutex.h</text>
</g>
<!-- Node6&#45;&gt;Node14 -->
<g id="edge14" class="edge"><title>Node6&#45;&gt;Node14</title>
<path fill="none" stroke="midnightblue" d="M611.457,-112.324C626.573,-103.822 649.849,-90.7288 667.504,-80.7975"/>
<polygon fill="midnightblue" stroke="midnightblue" points="669.648,-83.6077 676.648,-75.6545 666.216,-77.5066 669.648,-83.6077"/>
</g>
<!-- Node15 -->
<g id="node15" class="node"><title>Node15</title>
<g id="a_node15"><a xlink:href="_i_plug_constants_8h.html" target="_top" xlink:title="Constant definitions, Types, magic numbers. ">
<polygon fill="white" stroke="black" points="777.033,-0.5 777.033,-19.5 869.033,-19.5 869.033,-0.5 777.033,-0.5"/>
<text text-anchor="middle" x="823.033" y="-7.5" font-family="Helvetica,sans-Serif" font-size="10.00">IPlugConstants.h</text>
</a>
</g>
</g>
<!-- Node6&#45;&gt;Node15 -->
<g id="edge15" class="edge"><title>Node6&#45;&gt;Node15</title>
<path fill="none" stroke="midnightblue" d="M634.637,-120.361C701.441,-118.349 834.237,-110.056 863.033,-76 876.293,-60.3186 858.837,-39.8008 842.996,-26.0501"/>
<polygon fill="midnightblue" stroke="midnightblue" points="844.988,-23.1578 835.031,-19.5377 840.557,-28.5771 844.988,-23.1578"/>
</g>
<!-- Node16 -->
<g id="node16" class="node"><title>Node16</title>
<g id="a_node16"><a xlink:href="_i_plug_utilities_8h.html" target="_top" xlink:title="Utility functions and macros. ">
<polygon fill="white" stroke="black" points="774.033,-56.5 774.033,-75.5 854.033,-75.5 854.033,-56.5 774.033,-56.5"/>
<text text-anchor="middle" x="814.033" y="-63.5" font-family="Helvetica,sans-Serif" font-size="10.00">IPlugUtilities.h</text>
</a>
</g>
</g>
<!-- Node6&#45;&gt;Node16 -->
<g id="edge16" class="edge"><title>Node6&#45;&gt;Node16</title>
<path fill="none" stroke="midnightblue" d="M630.576,-112.444C668.287,-103.102 728.773,-88.1194 769.898,-77.9326"/>
<polygon fill="midnightblue" stroke="midnightblue" points="770.787,-81.3182 779.652,-75.5164 769.104,-74.5236 770.787,-81.3182"/>
</g>
<!-- Node16&#45;&gt;Node3 -->
<g id="edge24" class="edge"><title>Node16&#45;&gt;Node3</title>
<path fill="none" stroke="midnightblue" d="M805.364,-75.5914C786.758,-94.0294 742.764,-137.627 718.972,-161.205"/>
<polygon fill="midnightblue" stroke="midnightblue" points="716.383,-158.843 711.743,-168.368 721.31,-163.816 716.383,-158.843"/>
</g>
<!-- Node16&#45;&gt;Node4 -->
<g id="edge21" class="edge"><title>Node16&#45;&gt;Node4</title>
<path fill="none" stroke="midnightblue" d="M773.945,-60.7428C679.796,-50.7068 449.861,-25.9624 415.033,-20 413.081,-19.6658 411.081,-19.2945 409.066,-18.8985"/>
<polygon fill="midnightblue" stroke="midnightblue" points="409.551,-15.4235 399.042,-16.7696 408.097,-22.2707 409.551,-15.4235"/>
</g>
<!-- Node16&#45;&gt;Node5 -->
<g id="edge20" class="edge"><title>Node16&#45;&gt;Node5</title>
<path fill="none" stroke="midnightblue" d="M829.457,-56.324C844.573,-47.8215 867.849,-34.7288 885.504,-24.7975"/>
<polygon fill="midnightblue" stroke="midnightblue" points="887.648,-27.6077 894.648,-19.6545 884.216,-21.5066 887.648,-27.6077"/>
</g>
<!-- Node16&#45;&gt;Node7 -->
<g id="edge19" class="edge"><title>Node16&#45;&gt;Node7</title>
<path fill="none" stroke="midnightblue" d="M773.95,-59.1183C700.215,-48.2983 544.5,-25.449 477.632,-15.6368"/>
<polygon fill="midnightblue" stroke="midnightblue" points="478.091,-12.1668 467.689,-14.1777 477.075,-19.0926 478.091,-12.1668"/>
</g>
<!-- Node16&#45;&gt;Node8 -->
<g id="edge22" class="edge"><title>Node16&#45;&gt;Node8</title>
<path fill="none" stroke="midnightblue" d="M801.501,-56.324C789.447,-47.979 771.006,-35.2122 756.765,-25.3524"/>
<polygon fill="midnightblue" stroke="midnightblue" points="758.748,-22.469 748.534,-19.6545 754.764,-28.2243 758.748,-22.469"/>
</g>
<!-- Node16&#45;&gt;Node15 -->
<g id="edge23" class="edge"><title>Node16&#45;&gt;Node15</title>
<path fill="none" stroke="midnightblue" d="M815.519,-56.083C816.712,-48.9272 818.427,-38.6353 819.918,-29.6911"/>
<polygon fill="midnightblue" stroke="midnightblue" points="823.383,-30.1904 821.575,-19.7511 816.478,-29.0396 823.383,-30.1904"/>
</g>
<!-- Node17 -->
<g id="node17" class="node"><title>Node17</title>
<polygon fill="white" stroke="#bfbfbf" points="951.033,-0.5 951.033,-19.5 1007.03,-19.5 1007.03,-0.5 951.033,-0.5"/>
<text text-anchor="middle" x="979.033" y="-7.5" font-family="Helvetica,sans-Serif" font-size="10.00">algorithm</text>
</g>
<!-- Node16&#45;&gt;Node17 -->
<g id="edge17" class="edge"><title>Node16&#45;&gt;Node17</title>
<path fill="none" stroke="midnightblue" d="M840.178,-56.4435C868.057,-47.3196 912.382,-32.8133 943.433,-22.6509"/>
<polygon fill="midnightblue" stroke="midnightblue" points="944.596,-25.9533 953.011,-19.5164 942.418,-19.3005 944.596,-25.9533"/>
</g>
<!-- Node18 -->
<g id="node18" class="node"><title>Node18</title>
<polygon fill="white" stroke="#bfbfbf" points="84.0333,-0.5 84.0333,-19.5 128.033,-19.5 128.033,-0.5 84.0333,-0.5"/>
<text text-anchor="middle" x="106.033" y="-7.5" font-family="Helvetica,sans-Serif" font-size="10.00">cmath</text>
</g>
<!-- Node16&#45;&gt;Node18 -->
<g id="edge18" class="edge"><title>Node16&#45;&gt;Node18</title>
<path fill="none" stroke="midnightblue" d="M773.776,-60.5748C759.076,-59.0277 742.311,-57.3434 727.033,-56 501.75,-36.1897 229.927,-18.7039 138.1,-12.9745"/>
<polygon fill="midnightblue" stroke="midnightblue" points="138.252,-9.47723 128.054,-12.3498 137.817,-16.4637 138.252,-9.47723"/>
</g>
<!-- Node19&#45;&gt;Node2 -->
<g id="edge37" class="edge"><title>Node19&#45;&gt;Node2</title>
<path fill="none" stroke="midnightblue" d="M489.197,-281.851C493.872,-281.209 498.541,-280.582 503.033,-280 640.148,-262.222 674.798,-260.816 812.033,-244 813.299,-243.845 814.577,-243.688 815.865,-243.528"/>
<polygon fill="midnightblue" stroke="midnightblue" points="816.387,-246.991 825.877,-242.28 815.52,-240.044 816.387,-246.991"/>
</g>
<!-- Node19&#45;&gt;Node3 -->
<g id="edge36" class="edge"><title>Node19&#45;&gt;Node3</title>
<path fill="none" stroke="midnightblue" d="M489.396,-282.213C526.441,-275.807 577.677,-264.101 619.033,-244 645.301,-231.232 671.22,-209.381 687.167,-194.574"/>
<polygon fill="midnightblue" stroke="midnightblue" points="689.71,-196.986 694.545,-187.559 684.887,-191.913 689.71,-196.986"/>
</g>
<!-- Node19&#45;&gt;Node12 -->
<g id="edge27" class="edge"><title>Node19&#45;&gt;Node12</title>
<path fill="none" stroke="midnightblue" d="M390.853,-285.395C335.51,-280.196 250.739,-268.4 231.033,-244 193.58,-197.625 215.169,-119.932 227.838,-84.9877"/>
<polygon fill="midnightblue" stroke="midnightblue" points="231.126,-86.1883 231.408,-75.5972 224.583,-83.7006 231.126,-86.1883"/>
</g>
<!-- Node19&#45;&gt;Node13 -->
<g id="edge32" class="edge"><title>Node19&#45;&gt;Node13</title>
<path fill="none" stroke="midnightblue" d="M487.995,-280.43C525.542,-272.63 573.308,-259.916 585.033,-244 590.306,-236.843 589.496,-231.687 585.033,-224 557.465,-176.517 405.497,-107.55 340.04,-79.5328"/>
<polygon fill="midnightblue" stroke="midnightblue" points="341.245,-76.2416 330.672,-75.5503 338.506,-82.6837 341.245,-76.2416"/>
</g>
<!-- Node19&#45;&gt;Node17 -->
<g id="edge29" class="edge"><title>Node19&#45;&gt;Node17</title>
<path fill="none" stroke="midnightblue" d="M489.106,-282.561C532.394,-275.93 596.709,-263.74 650.033,-244 786.594,-193.448 918.487,-71.1714 963.104,-27.1398"/>
<polygon fill="midnightblue" stroke="midnightblue" points="965.791,-29.4031 970.4,-19.8636 960.848,-24.4464 965.791,-29.4031"/>
</g>
<!-- Node19&#45;&gt;Node18 -->
<g id="edge26" class="edge"><title>Node19&#45;&gt;Node18</title>
<path fill="none" stroke="midnightblue" d="M390.84,-287.063C276.024,-281.205 0.0333068,-258.823 0.0333068,-179 0.0333068,-179 0.0333068,-179 0.0333068,-121 0.0333068,-90.9022 -0.0999205,-79.2335 19.0333,-56 33.2364,-38.7532 55.7768,-27.3563 74.3554,-20.3475"/>
<polygon fill="midnightblue" stroke="midnightblue" points="75.6444,-23.6044 83.9172,-16.9854 73.3223,-17.0008 75.6444,-23.6044"/>
</g>
<!-- Node20 -->
<g id="node20" class="node"><title>Node20</title>
<polygon fill="white" stroke="#bfbfbf" points="240.533,-224.5 240.533,-243.5 299.533,-243.5 299.533,-224.5 240.533,-224.5"/>
<text text-anchor="middle" x="270.033" y="-231.5" font-family="Helvetica,sans-Serif" font-size="10.00">functional</text>
</g>
<!-- Node19&#45;&gt;Node20 -->
<g id="edge28" class="edge"><title>Node19&#45;&gt;Node20</title>
<path fill="none" stroke="midnightblue" d="M413.096,-280.444C384.373,-271.32 338.705,-256.813 306.712,-246.651"/>
<polygon fill="midnightblue" stroke="midnightblue" points="307.435,-243.208 296.844,-243.516 305.315,-249.88 307.435,-243.208"/>
</g>
<!-- Node21 -->
<g id="node21" class="node"><title>Node21</title>
<polygon fill="white" stroke="#bfbfbf" points="317.533,-224.5 317.533,-243.5 366.533,-243.5 366.533,-224.5 317.533,-224.5"/>
<text text-anchor="middle" x="342.033" y="-231.5" font-family="Helvetica,sans-Serif" font-size="10.00">random</text>
</g>
<!-- Node19&#45;&gt;Node21 -->
<g id="edge30" class="edge"><title>Node19&#45;&gt;Node21</title>
<path fill="none" stroke="midnightblue" d="M424.288,-280.324C408.715,-271.743 384.656,-258.486 366.574,-248.522"/>
<polygon fill="midnightblue" stroke="midnightblue" points="368.187,-245.415 357.74,-243.655 364.809,-251.546 368.187,-245.415"/>
</g>
<!-- Node22 -->
<g id="node22" class="node"><title>Node22</title>
<polygon fill="white" stroke="#bfbfbf" points="385.033,-224.5 385.033,-243.5 431.033,-243.5 431.033,-224.5 385.033,-224.5"/>
<text text-anchor="middle" x="408.033" y="-231.5" font-family="Helvetica,sans-Serif" font-size="10.00">chrono</text>
</g>
<!-- Node19&#45;&gt;Node22 -->
<g id="edge31" class="edge"><title>Node19&#45;&gt;Node22</title>
<path fill="none" stroke="midnightblue" d="M434.749,-280.083C430.322,-272.613 423.87,-261.724 418.415,-252.52"/>
<polygon fill="midnightblue" stroke="midnightblue" points="421.328,-250.57 413.219,-243.751 415.306,-254.138 421.328,-250.57"/>
</g>
<!-- Node23 -->
<g id="node23" class="node"><title>Node23</title>
<polygon fill="white" stroke="#bfbfbf" points="28.5333,-56.5 28.5333,-75.5 77.5333,-75.5 77.5333,-56.5 28.5333,-56.5"/>
<text text-anchor="middle" x="53.0333" y="-63.5" font-family="Helvetica,sans-Serif" font-size="10.00">ptrlist.h</text>
</g>
<!-- Node19&#45;&gt;Node23 -->
<g id="edge33" class="edge"><title>Node19&#45;&gt;Node23</title>
<path fill="none" stroke="midnightblue" d="M390.773,-286.769C343.628,-282.914 271.661,-272.434 216.033,-244 142.593,-206.461 85.4786,-121.544 63.1909,-84.6567"/>
<polygon fill="midnightblue" stroke="midnightblue" points="65.9436,-82.4349 57.8435,-75.6056 59.9168,-85.9956 65.9436,-82.4349"/>
</g>
<!-- Node24 -->
<g id="node24" class="node"><title>Node24</title>
<polygon fill="white" stroke="#bfbfbf" points="449.533,-224.5 449.533,-243.5 496.533,-243.5 496.533,-224.5 449.533,-224.5"/>
<text text-anchor="middle" x="473.033" y="-231.5" font-family="Helvetica,sans-Serif" font-size="10.00">swell.h</text>
</g>
<!-- Node19&#45;&gt;Node24 -->
<g id="edge34" class="edge"><title>Node19&#45;&gt;Node24</title>
<path fill="none" stroke="midnightblue" d="M445.483,-280.083C450.048,-272.613 456.702,-261.724 462.327,-252.52"/>
<polygon fill="midnightblue" stroke="midnightblue" points="465.457,-254.109 467.685,-243.751 459.484,-250.459 465.457,-254.109"/>
</g>
<!-- Node25 -->
<g id="node25" class="node"><title>Node25</title>
<polygon fill="white" stroke="#bfbfbf" points="515.033,-224.5 515.033,-243.5 577.033,-243.5 577.033,-224.5 515.033,-224.5"/>
<text text-anchor="middle" x="546.033" y="-231.5" font-family="Helvetica,sans-Serif" font-size="10.00">nanosvg.h</text>
</g>
<!-- Node19&#45;&gt;Node25 -->
<g id="edge35" class="edge"><title>Node19&#45;&gt;Node25</title>
<path fill="none" stroke="midnightblue" d="M457.064,-280.324C474.063,-271.664 500.409,-258.242 520.026,-248.249"/>
<polygon fill="midnightblue" stroke="midnightblue" points="521.723,-251.312 529.045,-243.655 518.546,-245.075 521.723,-251.312"/>
</g>
<!-- Node27&#45;&gt;Node4 -->
<g id="edge41" class="edge"><title>Node27&#45;&gt;Node4</title>
<path fill="none" stroke="midnightblue" d="M144.646,-112.369C146.125,-98.336 151.139,-70.6705 168.033,-56 193.805,-33.6197 290.73,-20.1036 342.671,-14.3148"/>
<polygon fill="midnightblue" stroke="midnightblue" points="343.162,-17.7823 352.728,-13.2281 342.41,-10.8228 343.162,-17.7823"/>
</g>
<!-- Node27&#45;&gt;Node7 -->
<g id="edge42" class="edge"><title>Node27&#45;&gt;Node7</title>
<path fill="none" stroke="midnightblue" d="M149.028,-112.143C157.631,-97.7865 176.69,-69.6658 201.033,-56 282.461,-10.2885 316.558,-38.7691 408.033,-20 410.109,-19.5742 412.244,-19.1182 414.393,-18.6457"/>
<polygon fill="midnightblue" stroke="midnightblue" points="415.41,-22.0037 424.381,-16.3668 413.853,-15.1791 415.41,-22.0037"/>
</g>
<!-- Node27&#45;&gt;Node12 -->
<g id="edge43" class="edge"><title>Node27&#45;&gt;Node12</title>
<path fill="none" stroke="midnightblue" d="M158.654,-112.324C172.982,-103.822 195.046,-90.7288 211.782,-80.7975"/>
<polygon fill="midnightblue" stroke="midnightblue" points="213.635,-83.7677 220.449,-75.6545 210.063,-77.7478 213.635,-83.7677"/>
</g>
<!-- Node27&#45;&gt;Node13 -->
<g id="edge44" class="edge"><title>Node27&#45;&gt;Node13</title>
<path fill="none" stroke="midnightblue" d="M170.337,-112.444C198.384,-103.32 242.978,-88.8133 274.218,-78.6509"/>
<polygon fill="midnightblue" stroke="midnightblue" points="275.426,-81.9383 283.853,-75.5164 273.261,-75.2816 275.426,-81.9383"/>
</g>
<!-- Node27&#45;&gt;Node18 -->
<g id="edge40" class="edge"><title>Node27&#45;&gt;Node18</title>
<path fill="none" stroke="midnightblue" d="M141.052,-112.368C134.891,-94.5366 120.644,-53.2953 112.345,-29.2717"/>
<polygon fill="midnightblue" stroke="midnightblue" points="115.575,-27.9005 109.001,-19.5914 108.958,-30.1862 115.575,-27.9005"/>
</g>
<!-- Node27&#45;&gt;Node23 -->
<g id="edge45" class="edge"><title>Node27&#45;&gt;Node23</title>
<path fill="none" stroke="midnightblue" d="M129.413,-112.324C115.084,-103.822 93.0208,-90.7288 76.2846,-80.7975"/>
<polygon fill="midnightblue" stroke="midnightblue" points="78.0037,-77.7478 67.6177,-75.6545 74.4315,-83.7677 78.0037,-77.7478"/>
</g>
</g>
</svg>
