<?xml version="1.0" encoding="UTF-8" standalone="no"?>
<!DOCTYPE svg PUBLIC "-//W3C//DTD SVG 1.1//EN"
 "http://www.w3.org/Graphics/SVG/1.1/DTD/svg11.dtd">
<!-- Generated by graphviz version 2.36.0 (20140111.2315)
 -->
<!-- Title: IVectorBase Pages: 1 -->
<svg width="364pt" height="218pt"
 viewBox="0.00 0.00 364.00 218.00" xmlns="http://www.w3.org/2000/svg" xmlns:xlink="http://www.w3.org/1999/xlink">
<g id="graph0" class="graph" transform="scale(1 1) rotate(0) translate(4 214)">
<title>IVectorBase</title>
<polygon fill="white" stroke="none" points="-4,4 -4,-214 360,-214 360,4 -4,4"/>
<!-- Node1 -->
<g id="node1" class="node"><title>Node1</title>
<polygon fill="#bfbfbf" stroke="black" points="0.5,-95.5 0.5,-114.5 71.5,-114.5 71.5,-95.5 0.5,-95.5"/>
<text text-anchor="middle" x="36" y="-102.5" font-family="Helvetica,sans-Serif" font-size="10.00">IVectorBase</text>
</g>
<!-- Node2 -->
<g id="node2" class="node"><title>Node2</title>
<g id="a_node2"><a xlink:href="class_i_v_drop_down_list_control.html" target="_top" xlink:title="A vector drop down list. ">
<polygon fill="white" stroke="black" points="108,-190.5 108,-209.5 228,-209.5 228,-190.5 108,-190.5"/>
<text text-anchor="middle" x="168" y="-197.5" font-family="Helvetica,sans-Serif" font-size="10.00">IVDropDownListControl</text>
</a>
</g>
</g>
<!-- Node1&#45;&gt;Node2 -->
<g id="edge1" class="edge"><title>Node1&#45;&gt;Node2</title>
<path fill="none" stroke="midnightblue" d="M49.3565,-122.761C62.1759,-139.947 83.7225,-165.594 108,-181 113.997,-184.806 120.823,-187.912 127.652,-190.426"/>
<polygon fill="midnightblue" stroke="midnightblue" points="52.1793,-120.692 43.48,-114.644 46.5093,-124.797 52.1793,-120.692"/>
</g>
<!-- Node3 -->
<g id="node3" class="node"><title>Node3</title>
<g id="a_node3"><a xlink:href="class_i_v_keyboard_control.html" target="_top" xlink:title="IVKeyboardControl">
<polygon fill="white" stroke="black" points="118.5,-152.5 118.5,-171.5 217.5,-171.5 217.5,-152.5 118.5,-152.5"/>
<text text-anchor="middle" x="168" y="-159.5" font-family="Helvetica,sans-Serif" font-size="10.00">IVKeyboardControl</text>
</a>
</g>
</g>
<!-- Node1&#45;&gt;Node3 -->
<g id="edge2" class="edge"><title>Node1&#45;&gt;Node3</title>
<path fill="none" stroke="midnightblue" d="M61.9867,-119.798C75.3524,-127.346 92.2595,-136.317 108,-143 116.221,-146.49 125.314,-149.715 133.848,-152.479"/>
<polygon fill="midnightblue" stroke="midnightblue" points="63.3624,-116.552 52.9476,-114.607 59.8762,-122.622 63.3624,-116.552"/>
</g>
<!-- Node4 -->
<g id="node4" class="node"><title>Node4</title>
<g id="a_node4"><a xlink:href="class_i_v_knob_control.html" target="_top" xlink:title="A vector knob control drawn using graphics primitves. ">
<polygon fill="white" stroke="black" points="128,-114.5 128,-133.5 208,-133.5 208,-114.5 128,-114.5"/>
<text text-anchor="middle" x="168" y="-121.5" font-family="Helvetica,sans-Serif" font-size="10.00">IVKnobControl</text>
</a>
</g>
</g>
<!-- Node1&#45;&gt;Node4 -->
<g id="edge3" class="edge"><title>Node1&#45;&gt;Node4</title>
<path fill="none" stroke="midnightblue" d="M81.9095,-111.564C96.8864,-113.753 113.442,-116.172 127.938,-118.291"/>
<polygon fill="midnightblue" stroke="midnightblue" points="82.2387,-108.075 71.8376,-110.092 81.2263,-115.001 82.2387,-108.075"/>
</g>
<!-- Node5 -->
<g id="node5" class="node"><title>Node5</title>
<g id="a_node5"><a xlink:href="class_i_v_meter_control.html" target="_top" xlink:title="IVMeterControl">
<polygon fill="white" stroke="black" points="126.5,-76.5 126.5,-95.5 209.5,-95.5 209.5,-76.5 126.5,-76.5"/>
<text text-anchor="middle" x="168" y="-83.5" font-family="Helvetica,sans-Serif" font-size="10.00">IVMeterControl</text>
</a>
</g>
</g>
<!-- Node1&#45;&gt;Node5 -->
<g id="edge4" class="edge"><title>Node1&#45;&gt;Node5</title>
<path fill="none" stroke="midnightblue" d="M81.9658,-98.4281C96.2866,-96.335 112.045,-94.0318 126.065,-91.9828"/>
<polygon fill="midnightblue" stroke="midnightblue" points="81.2263,-94.9989 71.8376,-99.9083 82.2387,-101.925 81.2263,-94.9989"/>
</g>
<!-- Node6 -->
<g id="node6" class="node"><title>Node6</title>
<g id="a_node6"><a xlink:href="class_i_v_slider_control.html" target="_top" xlink:title="IVSliderControl">
<polygon fill="white" stroke="black" points="126.5,-38.5 126.5,-57.5 209.5,-57.5 209.5,-38.5 126.5,-38.5"/>
<text text-anchor="middle" x="168" y="-45.5" font-family="Helvetica,sans-Serif" font-size="10.00">IVSliderControl</text>
</a>
</g>
</g>
<!-- Node1&#45;&gt;Node6 -->
<g id="edge5" class="edge"><title>Node1&#45;&gt;Node6</title>
<path fill="none" stroke="midnightblue" d="M61.9867,-90.2016C75.3524,-82.654 92.2595,-73.6825 108,-67 116.221,-63.5096 125.314,-60.2853 133.848,-57.5214"/>
<polygon fill="midnightblue" stroke="midnightblue" points="59.8762,-87.3775 52.9476,-95.3928 63.3624,-93.4477 59.8762,-87.3775"/>
</g>
<!-- Node7 -->
<g id="node7" class="node"><title>Node7</title>
<g id="a_node7"><a xlink:href="class_i_v_switch_control.html" target="_top" xlink:title="A vector switch control. ">
<polygon fill="white" stroke="black" points="124,-0.5 124,-19.5 212,-19.5 212,-0.5 124,-0.5"/>
<text text-anchor="middle" x="168" y="-7.5" font-family="Helvetica,sans-Serif" font-size="10.00">IVSwitchControl</text>
</a>
</g>
</g>
<!-- Node1&#45;&gt;Node7 -->
<g id="edge6" class="edge"><title>Node1&#45;&gt;Node7</title>
<path fill="none" stroke="midnightblue" d="M49.3565,-87.2389C62.1759,-70.053 83.7225,-44.4065 108,-29 113.997,-25.1945 120.823,-22.0883 127.652,-19.5738"/>
<polygon fill="midnightblue" stroke="midnightblue" points="46.5093,-85.2032 43.48,-95.3557 52.1793,-89.3082 46.5093,-85.2032"/>
</g>
<!-- Node8 -->
<g id="node8" class="node"><title>Node8</title>
<g id="a_node8"><a xlink:href="class_i_v_contact_control.html" target="_top" xlink:title="IVContactControl">
<polygon fill="white" stroke="black" points="264,-0.5 264,-19.5 356,-19.5 356,-0.5 264,-0.5"/>
<text text-anchor="middle" x="310" y="-7.5" font-family="Helvetica,sans-Serif" font-size="10.00">IVContactControl</text>
</a>
</g>
</g>
<!-- Node7&#45;&gt;Node8 -->
<g id="edge7" class="edge"><title>Node7&#45;&gt;Node8</title>
<path fill="none" stroke="midnightblue" d="M222.384,-10C236.048,-10 250.608,-10 263.815,-10"/>
<polygon fill="midnightblue" stroke="midnightblue" points="222.147,-6.5001 212.147,-10 222.147,-13.5001 222.147,-6.5001"/>
</g>
</g>
</svg>
