<?xml version="1.0" encoding="UTF-8" standalone="no"?>
<!DOCTYPE svg PUBLIC "-//W3C//DTD SVG 1.1//EN"
 "http://www.w3.org/Graphics/SVG/1.1/DTD/svg11.dtd">
<!-- Generated by graphviz version 2.36.0 (20140111.2315)
 -->
<!-- Title: IControl Pages: 1 -->
<svg width="490pt" height="446pt"
 viewBox="0.00 0.00 490.00 446.00" xmlns="http://www.w3.org/2000/svg" xmlns:xlink="http://www.w3.org/1999/xlink">
<g id="graph0" class="graph" transform="scale(1 1) rotate(0) translate(4 442)">
<title>IControl</title>
<polygon fill="white" stroke="none" points="-4,4 -4,-442 486,-442 486,4 -4,4"/>
<!-- Node1 -->
<g id="node1" class="node"><title>Node1</title>
<polygon fill="#bfbfbf" stroke="black" points="0.5,-209.5 0.5,-228.5 51.5,-228.5 51.5,-209.5 0.5,-209.5"/>
<text text-anchor="middle" x="26" y="-216.5" font-family="Helvetica,sans-Serif" font-size="10.00">IControl</text>
</g>
<!-- Node2 -->
<g id="node2" class="node"><title>Node2</title>
<g id="a_node2"><a xlink:href="class_i_bitmap_control.html" target="_top" xlink:title="A basic control to draw a bitmap, or one frame of a stacked bitmap depending on the current value...">
<polygon fill="white" stroke="black" points="107,-418.5 107,-437.5 189,-437.5 189,-418.5 107,-418.5"/>
<text text-anchor="middle" x="148" y="-425.5" font-family="Helvetica,sans-Serif" font-size="10.00">IBitmapControl</text>
</a>
</g>
</g>
<!-- Node1&#45;&gt;Node2 -->
<g id="edge1" class="edge"><title>Node1&#45;&gt;Node2</title>
<path fill="none" stroke="midnightblue" d="M27.6771,-239.244C30.0655,-277.701 40.7335,-361.691 88,-409 93.248,-414.253 99.9532,-418.054 106.949,-420.805"/>
<polygon fill="midnightblue" stroke="midnightblue" points="31.1539,-238.68 27.1704,-228.862 24.1622,-239.021 31.1539,-238.68"/>
</g>
<!-- Node4 -->
<g id="node4" class="node"><title>Node4</title>
<g id="a_node4"><a xlink:href="class_i_dir_browse_control_base.html" target="_top" xlink:title="An abstract IControl base class that you can inherit from in order to make a control that pops up a m...">
<polygon fill="white" stroke="black" points="88.5,-380.5 88.5,-399.5 207.5,-399.5 207.5,-380.5 88.5,-380.5"/>
<text text-anchor="middle" x="148" y="-387.5" font-family="Helvetica,sans-Serif" font-size="10.00">IDirBrowseControlBase</text>
</a>
</g>
</g>
<!-- Node1&#45;&gt;Node4 -->
<g id="edge3" class="edge"><title>Node1&#45;&gt;Node4</title>
<path fill="none" stroke="midnightblue" d="M29.5059,-238.757C34.6327,-270.995 49.3018,-334.924 88,-371 92.1717,-374.889 97.145,-377.982 102.409,-380.442"/>
<polygon fill="midnightblue" stroke="midnightblue" points="32.9578,-238.172 28.0667,-228.774 26.0295,-239.171 32.9578,-238.172"/>
</g>
<!-- Node5 -->
<g id="node5" class="node"><title>Node5</title>
<g id="a_node5"><a xlink:href="class_i_graphics_live_edit.html" target="_top" xlink:title="IGraphicsLiveEdit">
<polygon fill="white" stroke="black" points="101,-342.5 101,-361.5 195,-361.5 195,-342.5 101,-342.5"/>
<text text-anchor="middle" x="148" y="-349.5" font-family="Helvetica,sans-Serif" font-size="10.00">IGraphicsLiveEdit</text>
</a>
</g>
</g>
<!-- Node1&#45;&gt;Node5 -->
<g id="edge4" class="edge"><title>Node1&#45;&gt;Node5</title>
<path fill="none" stroke="midnightblue" d="M32.3862,-238.418C40.3925,-263.754 57.8266,-307.816 88,-333 92.6265,-336.861 98.0521,-339.943 103.706,-342.4"/>
<polygon fill="midnightblue" stroke="midnightblue" points="35.6481,-237.107 29.4405,-228.522 28.939,-239.105 35.6481,-237.107"/>
</g>
<!-- Node6 -->
<g id="node6" class="node"><title>Node6</title>
<g id="a_node6"><a xlink:href="class_i_knob_control_base.html" target="_top" xlink:title="Parent for knobs, to handle mouse action and ballistics. ">
<polygon fill="white" stroke="black" points="100,-304.5 100,-323.5 196,-323.5 196,-304.5 100,-304.5"/>
<text text-anchor="middle" x="148" y="-311.5" font-family="Helvetica,sans-Serif" font-size="10.00">IKnobControlBase</text>
</a>
</g>
</g>
<!-- Node1&#45;&gt;Node6 -->
<g id="edge5" class="edge"><title>Node1&#45;&gt;Node6</title>
<path fill="none" stroke="midnightblue" d="M37.3382,-237.292C47.9569,-254.513 66.0132,-279.861 88,-295 93.5838,-298.845 99.9926,-301.948 106.482,-304.441"/>
<polygon fill="midnightblue" stroke="midnightblue" points="40.3393,-235.491 32.2264,-228.677 34.3193,-239.063 40.3393,-235.491"/>
</g>
<!-- Node11 -->
<g id="node11" class="node"><title>Node11</title>
<g id="a_node11"><a xlink:href="class_i_panel_control.html" target="_top" xlink:title="A basic control to fill a rectangle with a color. ">
<polygon fill="white" stroke="black" points="110,-266.5 110,-285.5 186,-285.5 186,-266.5 110,-266.5"/>
<text text-anchor="middle" x="148" y="-273.5" font-family="Helvetica,sans-Serif" font-size="10.00">IPanelControl</text>
</a>
</g>
</g>
<!-- Node1&#45;&gt;Node11 -->
<g id="edge10" class="edge"><title>Node1&#45;&gt;Node11</title>
<path fill="none" stroke="midnightblue" d="M48.8735,-234.456C60.1803,-241.965 74.4248,-250.703 88,-257 95.7119,-260.577 104.283,-263.756 112.448,-266.442"/>
<polygon fill="midnightblue" stroke="midnightblue" points="50.7422,-231.494 40.5043,-228.767 46.8072,-237.284 50.7422,-231.494"/>
</g>
<!-- Node12 -->
<g id="node12" class="node"><title>Node12</title>
<g id="a_node12"><a xlink:href="class_i_slider_control_base.html" target="_top" xlink:title="ISliderControlBase">
<polygon fill="white" stroke="black" points="99,-228.5 99,-247.5 197,-247.5 197,-228.5 99,-228.5"/>
<text text-anchor="middle" x="148" y="-235.5" font-family="Helvetica,sans-Serif" font-size="10.00">ISliderControlBase</text>
</a>
</g>
</g>
<!-- Node1&#45;&gt;Node12 -->
<g id="edge11" class="edge"><title>Node1&#45;&gt;Node12</title>
<path fill="none" stroke="midnightblue" d="M61.6772,-224.491C73.217,-226.318 86.2874,-228.387 98.6683,-230.347"/>
<polygon fill="midnightblue" stroke="midnightblue" points="61.9977,-220.998 51.5734,-222.891 60.9029,-227.912 61.9977,-220.998"/>
</g>
<!-- Node15 -->
<g id="node15" class="node"><title>Node15</title>
<g id="a_node15"><a xlink:href="class_i_s_v_g_control.html" target="_top" xlink:title="A basic control to draw an SVG image to the screen. ">
<polygon fill="white" stroke="black" points="112,-190.5 112,-209.5 184,-209.5 184,-190.5 112,-190.5"/>
<text text-anchor="middle" x="148" y="-197.5" font-family="Helvetica,sans-Serif" font-size="10.00">ISVGControl</text>
</a>
</g>
</g>
<!-- Node1&#45;&gt;Node15 -->
<g id="edge14" class="edge"><title>Node1&#45;&gt;Node15</title>
<path fill="none" stroke="midnightblue" d="M61.5024,-213.537C77.3421,-211.029 96.0944,-208.06 111.995,-205.542"/>
<polygon fill="midnightblue" stroke="midnightblue" points="60.9029,-210.088 51.5734,-215.109 61.9977,-217.002 60.9029,-210.088"/>
</g>
<!-- Node16 -->
<g id="node16" class="node"><title>Node16</title>
<g id="a_node16"><a xlink:href="class_i_switch_control_base.html" target="_top" xlink:title="Parent for switch controls (including buttons a.k.a. ">
<polygon fill="white" stroke="black" points="96,-152.5 96,-171.5 200,-171.5 200,-152.5 96,-152.5"/>
<text text-anchor="middle" x="148" y="-159.5" font-family="Helvetica,sans-Serif" font-size="10.00">ISwitchControlBase</text>
</a>
</g>
</g>
<!-- Node1&#45;&gt;Node16 -->
<g id="edge15" class="edge"><title>Node1&#45;&gt;Node16</title>
<path fill="none" stroke="midnightblue" d="M48.8735,-203.544C60.1803,-196.035 74.4248,-187.297 88,-181 95.7119,-177.423 104.283,-174.244 112.448,-171.558"/>
<polygon fill="midnightblue" stroke="midnightblue" points="46.8072,-200.716 40.5043,-209.233 50.7422,-206.506 46.8072,-200.716"/>
</g>
<!-- Node19 -->
<g id="node19" class="node"><title>Node19</title>
<g id="a_node19"><a xlink:href="class_i_text_control.html" target="_top" xlink:title="A basic control to output text to the screen. ">
<polygon fill="white" stroke="black" points="112.5,-114.5 112.5,-133.5 183.5,-133.5 183.5,-114.5 112.5,-114.5"/>
<text text-anchor="middle" x="148" y="-121.5" font-family="Helvetica,sans-Serif" font-size="10.00">ITextControl</text>
</a>
</g>
</g>
<!-- Node1&#45;&gt;Node19 -->
<g id="edge18" class="edge"><title>Node1&#45;&gt;Node19</title>
<path fill="none" stroke="midnightblue" d="M37.3382,-200.708C47.9569,-183.487 66.0132,-158.139 88,-143 95.2679,-137.996 103.933,-134.248 112.355,-131.465"/>
<polygon fill="midnightblue" stroke="midnightblue" points="34.3193,-198.937 32.2264,-209.323 40.3393,-202.509 34.3193,-198.937"/>
</g>
<!-- Node22 -->
<g id="node22" class="node"><title>Node22</title>
<g id="a_node22"><a xlink:href="class_i_v_drop_down_list_control.html" target="_top" xlink:title="A vector drop down list. ">
<polygon fill="white" stroke="black" points="88,-76.5 88,-95.5 208,-95.5 208,-76.5 88,-76.5"/>
<text text-anchor="middle" x="148" y="-83.5" font-family="Helvetica,sans-Serif" font-size="10.00">IVDropDownListControl</text>
</a>
</g>
</g>
<!-- Node1&#45;&gt;Node22 -->
<g id="edge21" class="edge"><title>Node1&#45;&gt;Node22</title>
<path fill="none" stroke="midnightblue" d="M32.3862,-199.582C40.3925,-174.246 57.8266,-130.184 88,-105 92.6265,-101.139 98.0521,-98.0573 103.706,-95.5997"/>
<polygon fill="midnightblue" stroke="midnightblue" points="28.939,-198.895 29.4405,-209.478 35.6481,-200.893 28.939,-198.895"/>
</g>
<!-- Node23 -->
<g id="node23" class="node"><title>Node23</title>
<g id="a_node23"><a xlink:href="class_i_v_keyboard_control.html" target="_top" xlink:title="IVKeyboardControl">
<polygon fill="white" stroke="black" points="98.5,-38.5 98.5,-57.5 197.5,-57.5 197.5,-38.5 98.5,-38.5"/>
<text text-anchor="middle" x="148" y="-45.5" font-family="Helvetica,sans-Serif" font-size="10.00">IVKeyboardControl</text>
</a>
</g>
</g>
<!-- Node1&#45;&gt;Node23 -->
<g id="edge22" class="edge"><title>Node1&#45;&gt;Node23</title>
<path fill="none" stroke="midnightblue" d="M29.5059,-199.243C34.6327,-167.005 49.3018,-103.076 88,-67 92.1717,-63.1109 97.145,-60.0177 102.409,-57.5577"/>
<polygon fill="midnightblue" stroke="midnightblue" points="26.0295,-198.829 28.0667,-209.226 32.9578,-199.828 26.0295,-198.829"/>
</g>
<!-- Node24 -->
<g id="node24" class="node"><title>Node24</title>
<g id="a_node24"><a xlink:href="class_i_v_meter_control.html" target="_top" xlink:title="IVMeterControl">
<polygon fill="white" stroke="black" points="106.5,-0.5 106.5,-19.5 189.5,-19.5 189.5,-0.5 106.5,-0.5"/>
<text text-anchor="middle" x="148" y="-7.5" font-family="Helvetica,sans-Serif" font-size="10.00">IVMeterControl</text>
</a>
</g>
</g>
<!-- Node1&#45;&gt;Node24 -->
<g id="edge23" class="edge"><title>Node1&#45;&gt;Node24</title>
<path fill="none" stroke="midnightblue" d="M27.6771,-198.756C30.0655,-160.299 40.7335,-76.3085 88,-29 93.0959,-23.8995 99.5658,-20.1674 106.341,-17.4368"/>
<polygon fill="midnightblue" stroke="midnightblue" points="24.1622,-198.979 27.1704,-209.138 31.1539,-199.32 24.1622,-198.979"/>
</g>
<!-- Node3 -->
<g id="node3" class="node"><title>Node3</title>
<g id="a_node3"><a xlink:href="class_i_b_switch_control.html" target="_top" xlink:title="A bitmap switch control. ">
<polygon fill="white" stroke="black" points="244,-418.5 244,-437.5 332,-437.5 332,-418.5 244,-418.5"/>
<text text-anchor="middle" x="288" y="-425.5" font-family="Helvetica,sans-Serif" font-size="10.00">IBSwitchControl</text>
</a>
</g>
</g>
<!-- Node2&#45;&gt;Node3 -->
<g id="edge2" class="edge"><title>Node2&#45;&gt;Node3</title>
<path fill="none" stroke="midnightblue" d="M199.547,-428C213.975,-428 229.564,-428 243.53,-428"/>
<polygon fill="midnightblue" stroke="midnightblue" points="199.286,-424.5 189.286,-428 199.286,-431.5 199.286,-424.5"/>
</g>
<!-- Node7 -->
<g id="node7" class="node"><title>Node7</title>
<g id="a_node7"><a xlink:href="class_i_b_knob_control.html" target="_top" xlink:title="A bitmap knob/dial control. ">
<polygon fill="white" stroke="black" points="248,-342.5 248,-361.5 328,-361.5 328,-342.5 248,-342.5"/>
<text text-anchor="middle" x="288" y="-349.5" font-family="Helvetica,sans-Serif" font-size="10.00">IBKnobControl</text>
</a>
</g>
</g>
<!-- Node6&#45;&gt;Node7 -->
<g id="edge6" class="edge"><title>Node6&#45;&gt;Node7</title>
<path fill="none" stroke="midnightblue" d="M193.473,-326.246C212.495,-331.484 234.375,-337.509 252.188,-342.414"/>
<polygon fill="midnightblue" stroke="midnightblue" points="194.394,-322.869 183.823,-323.589 192.535,-329.618 194.394,-322.869"/>
</g>
<!-- Node9 -->
<g id="node9" class="node"><title>Node9</title>
<g id="a_node9"><a xlink:href="class_i_v_knob_control.html" target="_top" xlink:title="A vector knob control drawn using graphics primitves. ">
<polygon fill="white" stroke="black" points="248,-304.5 248,-323.5 328,-323.5 328,-304.5 248,-304.5"/>
<text text-anchor="middle" x="288" y="-311.5" font-family="Helvetica,sans-Serif" font-size="10.00">IVKnobControl</text>
</a>
</g>
</g>
<!-- Node6&#45;&gt;Node9 -->
<g id="edge8" class="edge"><title>Node6&#45;&gt;Node9</title>
<path fill="none" stroke="midnightblue" d="M206.176,-314C220.217,-314 234.931,-314 247.899,-314"/>
<polygon fill="midnightblue" stroke="midnightblue" points="206.106,-310.5 196.106,-314 206.106,-317.5 206.106,-310.5"/>
</g>
<!-- Node10 -->
<g id="node10" class="node"><title>Node10</title>
<g id="a_node10"><a xlink:href="class_i_v_s_v_g_knob.html" target="_top" xlink:title="A vector knob control which rotates an SVG image. ">
<polygon fill="white" stroke="black" points="253,-266.5 253,-285.5 323,-285.5 323,-266.5 253,-266.5"/>
<text text-anchor="middle" x="288" y="-273.5" font-family="Helvetica,sans-Serif" font-size="10.00">IVSVGKnob</text>
</a>
</g>
</g>
<!-- Node6&#45;&gt;Node10 -->
<g id="edge9" class="edge"><title>Node6&#45;&gt;Node10</title>
<path fill="none" stroke="midnightblue" d="M193.549,-301.733C212.723,-296.453 234.791,-290.376 252.666,-285.454"/>
<polygon fill="midnightblue" stroke="midnightblue" points="192.535,-298.382 183.823,-304.411 194.394,-305.131 192.535,-298.382"/>
</g>
<!-- Node8 -->
<g id="node8" class="node"><title>Node8</title>
<g id="a_node8"><a xlink:href="class_i_b_knob_rotater_control.html" target="_top" xlink:title="IBKnobRotaterControl">
<polygon fill="white" stroke="black" points="368.5,-342.5 368.5,-361.5 481.5,-361.5 481.5,-342.5 368.5,-342.5"/>
<text text-anchor="middle" x="425" y="-349.5" font-family="Helvetica,sans-Serif" font-size="10.00">IBKnobRotaterControl</text>
</a>
</g>
</g>
<!-- Node7&#45;&gt;Node8 -->
<g id="edge7" class="edge"><title>Node7&#45;&gt;Node8</title>
<path fill="none" stroke="midnightblue" d="M338.089,-352C347.96,-352 358.4,-352 368.472,-352"/>
<polygon fill="midnightblue" stroke="midnightblue" points="338.048,-348.5 328.048,-352 338.048,-355.5 338.048,-348.5"/>
</g>
<!-- Node13 -->
<g id="node13" class="node"><title>Node13</title>
<g id="a_node13"><a xlink:href="class_i_b_slider_control.html" target="_top" xlink:title="IBSliderControl">
<polygon fill="white" stroke="black" points="246.5,-228.5 246.5,-247.5 329.5,-247.5 329.5,-228.5 246.5,-228.5"/>
<text text-anchor="middle" x="288" y="-235.5" font-family="Helvetica,sans-Serif" font-size="10.00">IBSliderControl</text>
</a>
</g>
</g>
<!-- Node12&#45;&gt;Node13 -->
<g id="edge12" class="edge"><title>Node12&#45;&gt;Node13</title>
<path fill="none" stroke="midnightblue" d="M207.58,-238C220.624,-238 234.175,-238 246.313,-238"/>
<polygon fill="midnightblue" stroke="midnightblue" points="207.266,-234.5 197.266,-238 207.266,-241.5 207.266,-234.5"/>
</g>
<!-- Node14 -->
<g id="node14" class="node"><title>Node14</title>
<g id="a_node14"><a xlink:href="class_i_v_slider_control.html" target="_top" xlink:title="IVSliderControl">
<polygon fill="white" stroke="black" points="246.5,-190.5 246.5,-209.5 329.5,-209.5 329.5,-190.5 246.5,-190.5"/>
<text text-anchor="middle" x="288" y="-197.5" font-family="Helvetica,sans-Serif" font-size="10.00">IVSliderControl</text>
</a>
</g>
</g>
<!-- Node12&#45;&gt;Node14 -->
<g id="edge13" class="edge"><title>Node12&#45;&gt;Node14</title>
<path fill="none" stroke="midnightblue" d="M193.473,-225.754C212.495,-220.516 234.375,-214.491 252.188,-209.586"/>
<polygon fill="midnightblue" stroke="midnightblue" points="192.535,-222.382 183.823,-228.411 194.394,-229.131 192.535,-222.382"/>
</g>
<!-- Node17 -->
<g id="node17" class="node"><title>Node17</title>
<g id="a_node17"><a xlink:href="class_i_v_switch_control.html" target="_top" xlink:title="A vector switch control. ">
<polygon fill="white" stroke="black" points="244,-152.5 244,-171.5 332,-171.5 332,-152.5 244,-152.5"/>
<text text-anchor="middle" x="288" y="-159.5" font-family="Helvetica,sans-Serif" font-size="10.00">IVSwitchControl</text>
</a>
</g>
</g>
<!-- Node16&#45;&gt;Node17 -->
<g id="edge16" class="edge"><title>Node16&#45;&gt;Node17</title>
<path fill="none" stroke="midnightblue" d="M210.551,-162C221.737,-162 233.188,-162 243.709,-162"/>
<polygon fill="midnightblue" stroke="midnightblue" points="210.386,-158.5 200.386,-162 210.386,-165.5 210.386,-158.5"/>
</g>
<!-- Node18 -->
<g id="node18" class="node"><title>Node18</title>
<g id="a_node18"><a xlink:href="class_i_v_contact_control.html" target="_top" xlink:title="IVContactControl">
<polygon fill="white" stroke="black" points="379,-152.5 379,-171.5 471,-171.5 471,-152.5 379,-152.5"/>
<text text-anchor="middle" x="425" y="-159.5" font-family="Helvetica,sans-Serif" font-size="10.00">IVContactControl</text>
</a>
</g>
</g>
<!-- Node17&#45;&gt;Node18 -->
<g id="edge17" class="edge"><title>Node17&#45;&gt;Node18</title>
<path fill="none" stroke="midnightblue" d="M342.139,-162C354.334,-162 367.185,-162 378.999,-162"/>
<polygon fill="midnightblue" stroke="midnightblue" points="342.086,-158.5 332.086,-162 342.086,-165.5 342.086,-158.5"/>
</g>
<!-- Node20 -->
<g id="node20" class="node"><title>Node20</title>
<g id="a_node20"><a xlink:href="class_i_b_text_control.html" target="_top" xlink:title="Display monospace bitmap font text. ">
<polygon fill="white" stroke="black" points="249.5,-114.5 249.5,-133.5 326.5,-133.5 326.5,-114.5 249.5,-114.5"/>
<text text-anchor="middle" x="288" y="-121.5" font-family="Helvetica,sans-Serif" font-size="10.00">IBTextControl</text>
</a>
</g>
</g>
<!-- Node19&#45;&gt;Node20 -->
<g id="edge19" class="edge"><title>Node19&#45;&gt;Node20</title>
<path fill="none" stroke="midnightblue" d="M194.017,-124C211.885,-124 232.203,-124 249.279,-124"/>
<polygon fill="midnightblue" stroke="midnightblue" points="193.823,-120.5 183.823,-124 193.823,-127.5 193.823,-120.5"/>
</g>
<!-- Node21 -->
<g id="node21" class="node"><title>Node21</title>
<g id="a_node21"><a xlink:href="class_i_caption_control.html" target="_top" xlink:title="ICaptionControl">
<polygon fill="white" stroke="black" points="245.5,-76.5 245.5,-95.5 330.5,-95.5 330.5,-76.5 245.5,-76.5"/>
<text text-anchor="middle" x="288" y="-83.5" font-family="Helvetica,sans-Serif" font-size="10.00">ICaptionControl</text>
</a>
</g>
</g>
<!-- Node19&#45;&gt;Node21 -->
<g id="edge20" class="edge"><title>Node19&#45;&gt;Node21</title>
<path fill="none" stroke="midnightblue" d="M193.473,-111.754C212.495,-106.516 234.375,-100.491 252.188,-95.5859"/>
<polygon fill="midnightblue" stroke="midnightblue" points="192.535,-108.382 183.823,-114.411 194.394,-115.131 192.535,-108.382"/>
</g>
</g>
</svg>
