<?xml version="1.0" encoding="UTF-8" standalone="no"?>
<!DOCTYPE svg PUBLIC "-//W3C//DTD SVG 1.1//EN"
 "http://www.w3.org/Graphics/SVG/1.1/DTD/svg11.dtd">
<!-- Generated by graphviz version 2.36.0 (20140111.2315)
 -->
<!-- Title: Extras Pages: 1 -->
<svg width="254pt" height="111pt"
 viewBox="0.00 0.00 254.00 111.00" xmlns="http://www.w3.org/2000/svg" xmlns:xlink="http://www.w3.org/1999/xlink">
<g id="graph0" class="graph" transform="scale(1 1) rotate(0) translate(4 107)">
<title>Extras</title>
<polygon fill="white" stroke="none" points="-4,4 -4,-107 250,-107 250,4 -4,4"/>
<g id="clust1" class="cluster"><title>clusterdir_a8a4892678035c62db3a4af7d9811050</title>
<g id="a_clust1"><a xlink:href="dir_a8a4892678035c62db3a4af7d9811050.html" target="_top" xlink:title="IPlug">
<polygon fill="#ddddee" stroke="black" points="8,-8 8,-95 238,-95 238,-8 8,-8"/>
<text text-anchor="middle" x="123" y="-83" font-family="Helvetica,sans-Serif" font-size="10.00">IPlug</text>
</a>
</g>
</g>
<g id="clust2" class="cluster"><title>clusterdir_91051055e54918154e7732bfb3d5e02e</title>
<g id="a_clust2"><a xlink:href="dir_91051055e54918154e7732bfb3d5e02e.html" target="_top">
<polygon fill="#eeeeff" stroke="black" points="16,-16 16,-68 230,-68 230,-16 16,-16"/>
</a>
</g>
</g>
<!-- dir_91051055e54918154e7732bfb3d5e02e -->
<g id="node1" class="node"><title>dir_91051055e54918154e7732bfb3d5e02e</title>
<text text-anchor="middle" x="195" y="-39.5" font-family="Helvetica,sans-Serif" font-size="10.00">Extras</text>
</g>
<!-- dir_c9985d0d8d32cb56b16df08f09eb55fd -->
<g id="node2" class="node"><title>dir_c9985d0d8d32cb56b16df08f09eb55fd</title>
<g id="a_node2"><a xlink:href="dir_c9985d0d8d32cb56b16df08f09eb55fd.html" target="_top" xlink:title="HIIR">
<polygon fill="white" stroke="black" points="150,-60 96,-60 96,-24 150,-24 150,-60"/>
<text text-anchor="middle" x="123" y="-39.5" font-family="Helvetica,sans-Serif" font-size="10.00">HIIR</text>
</a>
</g>
</g>
<!-- dir_1f8363f8efd37057c367a831a7a4c316 -->
<g id="node3" class="node"><title>dir_1f8363f8efd37057c367a831a7a4c316</title>
<g id="a_node3"><a xlink:href="dir_1f8363f8efd37057c367a831a7a4c316.html" target="_top" xlink:title="OSC">
<polygon fill="white" stroke="black" points="78,-60 24,-60 24,-24 78,-24 78,-60"/>
<text text-anchor="middle" x="51" y="-39.5" font-family="Helvetica,sans-Serif" font-size="10.00">OSC</text>
</a>
</g>
</g>
</g>
</svg>
