<?xml version="1.0" encoding="UTF-8" standalone="no"?>
<!DOCTYPE svg PUBLIC "-//W3C//DTD SVG 1.1//EN"
 "http://www.w3.org/Graphics/SVG/1.1/DTD/svg11.dtd">
<!-- Generated by graphviz version 2.36.0 (20140111.2315)
 -->
<!-- Title: Graphical Class Hierarchy Pages: 1 -->
<svg width="510pt" height="580pt"
 viewBox="0.00 0.00 510.00 580.00" xmlns="http://www.w3.org/2000/svg" xmlns:xlink="http://www.w3.org/1999/xlink">
<g id="graph0" class="graph" transform="scale(1 1) rotate(0) translate(4 576.003)">
<title>Graphical Class Hierarchy</title>
<polygon fill="white" stroke="none" points="-4,4 -4,-576.003 506,-576.003 506,4 -4,4"/>
<!-- Node1 -->
<g id="node1" class="node"><title>Node1</title>
<g id="a_node1"><a xlink:href="class_i_bitmap_base.html" target="_top" xlink:title="IBitmapBase">
<polygon fill="white" stroke="black" points="131.5,-400.503 131.5,-419.503 204.5,-419.503 204.5,-400.503 131.5,-400.503"/>
<text text-anchor="middle" x="168" y="-407.503" font-family="Helvetica,sans-Serif" font-size="10.00">IBitmapBase</text>
</a>
</g>
</g>
<!-- Node2 -->
<g id="node2" class="node"><title>Node2</title>
<g id="a_node2"><a xlink:href="class_i_bitmap_control.html" target="_top" xlink:title="A basic control to draw a bitmap, or one frame of a stacked bitmap depending on the current value...">
<polygon fill="white" stroke="black" points="267,-438.503 267,-457.503 349,-457.503 349,-438.503 267,-438.503"/>
<text text-anchor="middle" x="308" y="-445.503" font-family="Helvetica,sans-Serif" font-size="10.00">IBitmapControl</text>
</a>
</g>
</g>
<!-- Node1&#45;&gt;Node2 -->
<g id="edge1" class="edge"><title>Node1&#45;&gt;Node2</title>
<path fill="none" stroke="midnightblue" d="M213.473,-422.249C232.495,-427.487 254.375,-433.512 272.188,-438.417"/>
<polygon fill="midnightblue" stroke="midnightblue" points="214.394,-418.873 203.823,-419.592 212.535,-425.621 214.394,-418.873"/>
</g>
<!-- Node4 -->
<g id="node4" class="node"><title>Node4</title>
<g id="a_node4"><a xlink:href="class_i_b_knob_control.html" target="_top" xlink:title="A bitmap knob/dial control. ">
<polygon fill="white" stroke="black" points="268,-362.503 268,-381.503 348,-381.503 348,-362.503 268,-362.503"/>
<text text-anchor="middle" x="308" y="-369.503" font-family="Helvetica,sans-Serif" font-size="10.00">IBKnobControl</text>
</a>
</g>
</g>
<!-- Node1&#45;&gt;Node4 -->
<g id="edge3" class="edge"><title>Node1&#45;&gt;Node4</title>
<path fill="none" stroke="midnightblue" d="M213.473,-397.757C232.495,-392.519 254.375,-386.494 272.188,-381.589"/>
<polygon fill="midnightblue" stroke="midnightblue" points="212.535,-394.385 203.823,-400.414 214.394,-401.134 212.535,-394.385"/>
</g>
<!-- Node6 -->
<g id="node6" class="node"><title>Node6</title>
<g id="a_node6"><a xlink:href="class_i_b_slider_control.html" target="_top" xlink:title="IBSliderControl">
<polygon fill="white" stroke="black" points="266.5,-400.503 266.5,-419.503 349.5,-419.503 349.5,-400.503 266.5,-400.503"/>
<text text-anchor="middle" x="308" y="-407.503" font-family="Helvetica,sans-Serif" font-size="10.00">IBSliderControl</text>
</a>
</g>
</g>
<!-- Node1&#45;&gt;Node6 -->
<g id="edge5" class="edge"><title>Node1&#45;&gt;Node6</title>
<path fill="none" stroke="midnightblue" d="M214.605,-410.003C231.267,-410.003 249.993,-410.003 266.208,-410.003"/>
<polygon fill="midnightblue" stroke="midnightblue" points="214.538,-406.503 204.538,-410.003 214.538,-413.503 214.538,-406.503"/>
</g>
<!-- Node7 -->
<g id="node7" class="node"><title>Node7</title>
<g id="a_node7"><a xlink:href="class_i_b_text_control.html" target="_top" xlink:title="Display monospace bitmap font text. ">
<polygon fill="white" stroke="black" points="269.5,-476.503 269.5,-495.503 346.5,-495.503 346.5,-476.503 269.5,-476.503"/>
<text text-anchor="middle" x="308" y="-483.503" font-family="Helvetica,sans-Serif" font-size="10.00">IBTextControl</text>
</a>
</g>
</g>
<!-- Node1&#45;&gt;Node7 -->
<g id="edge6" class="edge"><title>Node1&#45;&gt;Node7</title>
<path fill="none" stroke="midnightblue" d="M214.043,-421.859C218.917,-423.909 223.672,-426.278 228,-429.003 247.686,-441.4 244.988,-453.595 264,-467.003 269.069,-470.578 274.918,-473.705 280.637,-476.335"/>
<polygon fill="midnightblue" stroke="midnightblue" points="215.196,-418.553 204.604,-418.299 212.726,-425.103 215.196,-418.553"/>
</g>
<!-- Node3 -->
<g id="node3" class="node"><title>Node3</title>
<g id="a_node3"><a xlink:href="class_i_b_switch_control.html" target="_top" xlink:title="A bitmap switch control. ">
<polygon fill="white" stroke="black" points="401,-438.503 401,-457.503 489,-457.503 489,-438.503 401,-438.503"/>
<text text-anchor="middle" x="445" y="-445.503" font-family="Helvetica,sans-Serif" font-size="10.00">IBSwitchControl</text>
</a>
</g>
</g>
<!-- Node2&#45;&gt;Node3 -->
<g id="edge2" class="edge"><title>Node2&#45;&gt;Node3</title>
<path fill="none" stroke="midnightblue" d="M359.362,-448.003C373.041,-448.003 387.725,-448.003 400.959,-448.003"/>
<polygon fill="midnightblue" stroke="midnightblue" points="359.139,-444.503 349.139,-448.003 359.139,-451.503 359.139,-444.503"/>
</g>
<!-- Node5 -->
<g id="node5" class="node"><title>Node5</title>
<g id="a_node5"><a xlink:href="class_i_b_knob_rotater_control.html" target="_top" xlink:title="IBKnobRotaterControl">
<polygon fill="white" stroke="black" points="388.5,-362.503 388.5,-381.503 501.5,-381.503 501.5,-362.503 388.5,-362.503"/>
<text text-anchor="middle" x="445" y="-369.503" font-family="Helvetica,sans-Serif" font-size="10.00">IBKnobRotaterControl</text>
</a>
</g>
</g>
<!-- Node4&#45;&gt;Node5 -->
<g id="edge4" class="edge"><title>Node4&#45;&gt;Node5</title>
<path fill="none" stroke="midnightblue" d="M358.089,-372.003C367.96,-372.003 378.4,-372.003 388.472,-372.003"/>
<polygon fill="midnightblue" stroke="midnightblue" points="358.048,-368.503 348.048,-372.003 358.048,-375.503 358.048,-368.503"/>
</g>
<!-- Node8 -->
<g id="node8" class="node"><title>Node8</title>
<g id="a_node8"><a xlink:href="class_i_control.html" target="_top" xlink:title="The lowest level base class of an IGraphics control. ">
<polygon fill="white" stroke="black" points="10.5,-305.503 10.5,-324.503 61.5,-324.503 61.5,-305.503 10.5,-305.503"/>
<text text-anchor="middle" x="36" y="-312.503" font-family="Helvetica,sans-Serif" font-size="10.00">IControl</text>
</a>
</g>
</g>
<!-- Node8&#45;&gt;Node2 -->
<g id="edge7" class="edge"><title>Node8&#45;&gt;Node2</title>
<path fill="none" stroke="midnightblue" d="M39.5306,-334.89C45.0518,-368.919 61.6441,-437.492 108,-467.003 164.357,-502.881 248.48,-474.059 286.745,-457.553"/>
<polygon fill="midnightblue" stroke="midnightblue" points="42.9628,-334.171 38.0557,-324.781 36.0361,-335.181 42.9628,-334.171"/>
</g>
<!-- Node9 -->
<g id="node9" class="node"><title>Node9</title>
<g id="a_node9"><a xlink:href="class_i_dir_browse_control_base.html" target="_top" xlink:title="An abstract IControl base class that you can inherit from in order to make a control that pops up a m...">
<polygon fill="white" stroke="black" points="108.5,-248.503 108.5,-267.503 227.5,-267.503 227.5,-248.503 108.5,-248.503"/>
<text text-anchor="middle" x="168" y="-255.503" font-family="Helvetica,sans-Serif" font-size="10.00">IDirBrowseControlBase</text>
</a>
</g>
</g>
<!-- Node8&#45;&gt;Node9 -->
<g id="edge8" class="edge"><title>Node8&#45;&gt;Node9</title>
<path fill="none" stroke="midnightblue" d="M61.9867,-300.205C75.3524,-292.657 92.2595,-283.686 108,-277.003 116.221,-273.513 125.314,-270.288 133.848,-267.525"/>
<polygon fill="midnightblue" stroke="midnightblue" points="59.8762,-297.381 52.9476,-305.396 63.3624,-303.451 59.8762,-297.381"/>
</g>
<!-- Node10 -->
<g id="node10" class="node"><title>Node10</title>
<g id="a_node10"><a xlink:href="class_i_graphics_live_edit.html" target="_top" xlink:title="IGraphicsLiveEdit">
<polygon fill="white" stroke="black" points="121,-552.503 121,-571.503 215,-571.503 215,-552.503 121,-552.503"/>
<text text-anchor="middle" x="168" y="-559.503" font-family="Helvetica,sans-Serif" font-size="10.00">IGraphicsLiveEdit</text>
</a>
</g>
</g>
<!-- Node8&#45;&gt;Node10 -->
<g id="edge9" class="edge"><title>Node8&#45;&gt;Node10</title>
<path fill="none" stroke="midnightblue" d="M37.3522,-335.029C39.2233,-378.917 49.8868,-484.326 108,-543.003 111.862,-546.902 116.527,-550.002 121.521,-552.466"/>
<polygon fill="midnightblue" stroke="midnightblue" points="40.8437,-334.701 37.0336,-324.815 33.8471,-334.919 40.8437,-334.701"/>
</g>
<!-- Node11 -->
<g id="node11" class="node"><title>Node11</title>
<g id="a_node11"><a xlink:href="class_i_knob_control_base.html" target="_top" xlink:title="Parent for knobs, to handle mouse action and ballistics. ">
<polygon fill="white" stroke="black" points="120,-286.503 120,-305.503 216,-305.503 216,-286.503 120,-286.503"/>
<text text-anchor="middle" x="168" y="-293.503" font-family="Helvetica,sans-Serif" font-size="10.00">IKnobControlBase</text>
</a>
</g>
</g>
<!-- Node8&#45;&gt;Node11 -->
<g id="edge10" class="edge"><title>Node8&#45;&gt;Node11</title>
<path fill="none" stroke="midnightblue" d="M71.971,-309.892C86.7209,-307.736 104.115,-305.194 119.963,-302.878"/>
<polygon fill="midnightblue" stroke="midnightblue" points="71.1467,-306.475 61.758,-311.385 72.1591,-313.402 71.1467,-306.475"/>
</g>
<!-- Node14 -->
<g id="node14" class="node"><title>Node14</title>
<g id="a_node14"><a xlink:href="class_i_panel_control.html" target="_top" xlink:title="A basic control to fill a rectangle with a color. ">
<polygon fill="white" stroke="black" points="130,-438.503 130,-457.503 206,-457.503 206,-438.503 130,-438.503"/>
<text text-anchor="middle" x="168" y="-445.503" font-family="Helvetica,sans-Serif" font-size="10.00">IPanelControl</text>
</a>
</g>
</g>
<!-- Node8&#45;&gt;Node14 -->
<g id="edge14" class="edge"><title>Node8&#45;&gt;Node14</title>
<path fill="none" stroke="midnightblue" d="M44.0111,-334.101C54.2521,-359.404 75.6714,-403.775 108,-429.003 114.363,-433.968 122.061,-437.655 129.767,-440.386"/>
<polygon fill="midnightblue" stroke="midnightblue" points="47.182,-332.597 40.3073,-324.535 40.6543,-335.125 47.182,-332.597"/>
</g>
<!-- Node15 -->
<g id="node15" class="node"><title>Node15</title>
<g id="a_node15"><a xlink:href="class_i_slider_control_base.html" target="_top" xlink:title="ISliderControlBase">
<polygon fill="white" stroke="black" points="119,-362.503 119,-381.503 217,-381.503 217,-362.503 119,-362.503"/>
<text text-anchor="middle" x="168" y="-369.503" font-family="Helvetica,sans-Serif" font-size="10.00">ISliderControlBase</text>
</a>
</g>
</g>
<!-- Node8&#45;&gt;Node15 -->
<g id="edge15" class="edge"><title>Node8&#45;&gt;Node15</title>
<path fill="none" stroke="midnightblue" d="M61.9867,-329.801C75.3524,-337.349 92.2595,-346.321 108,-353.003 116.221,-356.493 125.314,-359.718 133.848,-362.482"/>
<polygon fill="midnightblue" stroke="midnightblue" points="63.3624,-326.555 52.9476,-324.61 59.8762,-332.626 63.3624,-326.555"/>
</g>
<!-- Node17 -->
<g id="node17" class="node"><title>Node17</title>
<g id="a_node17"><a xlink:href="class_i_s_v_g_control.html" target="_top" xlink:title="A basic control to draw an SVG image to the screen. ">
<polygon fill="white" stroke="black" points="132,-324.503 132,-343.503 204,-343.503 204,-324.503 132,-324.503"/>
<text text-anchor="middle" x="168" y="-331.503" font-family="Helvetica,sans-Serif" font-size="10.00">ISVGControl</text>
</a>
</g>
</g>
<!-- Node8&#45;&gt;Node17 -->
<g id="edge18" class="edge"><title>Node8&#45;&gt;Node17</title>
<path fill="none" stroke="midnightblue" d="M71.815,-320.091C90.2924,-322.792 112.953,-326.104 131.528,-328.819"/>
<polygon fill="midnightblue" stroke="midnightblue" points="72.1591,-316.605 61.758,-318.622 71.1467,-323.531 72.1591,-316.605"/>
</g>
<!-- Node18 -->
<g id="node18" class="node"><title>Node18</title>
<g id="a_node18"><a xlink:href="class_i_switch_control_base.html" target="_top" xlink:title="Parent for switch controls (including buttons a.k.a. ">
<polygon fill="white" stroke="black" points="116,-210.503 116,-229.503 220,-229.503 220,-210.503 116,-210.503"/>
<text text-anchor="middle" x="168" y="-217.503" font-family="Helvetica,sans-Serif" font-size="10.00">ISwitchControlBase</text>
</a>
</g>
</g>
<!-- Node8&#45;&gt;Node18 -->
<g id="edge19" class="edge"><title>Node8&#45;&gt;Node18</title>
<path fill="none" stroke="midnightblue" d="M49.3565,-297.242C62.1759,-280.056 83.7225,-254.41 108,-239.003 113.997,-235.198 120.823,-232.091 127.652,-229.577"/>
<polygon fill="midnightblue" stroke="midnightblue" points="46.5093,-295.206 43.48,-305.359 52.1793,-299.311 46.5093,-295.206"/>
</g>
<!-- Node21 -->
<g id="node21" class="node"><title>Node21</title>
<g id="a_node21"><a xlink:href="class_i_text_control.html" target="_top" xlink:title="A basic control to output text to the screen. ">
<polygon fill="white" stroke="black" points="132.5,-514.503 132.5,-533.503 203.5,-533.503 203.5,-514.503 132.5,-514.503"/>
<text text-anchor="middle" x="168" y="-521.503" font-family="Helvetica,sans-Serif" font-size="10.00">ITextControl</text>
</a>
</g>
</g>
<!-- Node8&#45;&gt;Node21 -->
<g id="edge22" class="edge"><title>Node8&#45;&gt;Node21</title>
<path fill="none" stroke="midnightblue" d="M39.4131,-334.993C44.921,-372.252 61.7307,-452.804 108,-500.003 114.657,-506.794 123.5,-511.731 132.309,-515.293"/>
<polygon fill="midnightblue" stroke="midnightblue" points="42.8573,-334.344 38.0465,-324.904 35.9207,-335.283 42.8573,-334.344"/>
</g>
<!-- Node23 -->
<g id="node23" class="node"><title>Node23</title>
<g id="a_node23"><a xlink:href="class_i_v_drop_down_list_control.html" target="_top" xlink:title="A vector drop down list. ">
<polygon fill="white" stroke="black" points="108,-172.503 108,-191.503 228,-191.503 228,-172.503 108,-172.503"/>
<text text-anchor="middle" x="168" y="-179.503" font-family="Helvetica,sans-Serif" font-size="10.00">IVDropDownListControl</text>
</a>
</g>
</g>
<!-- Node8&#45;&gt;Node23 -->
<g id="edge25" class="edge"><title>Node8&#45;&gt;Node23</title>
<path fill="none" stroke="midnightblue" d="M44.0111,-295.905C54.2521,-270.602 75.6714,-226.232 108,-201.003 112.92,-197.163 118.64,-194.088 124.544,-191.628"/>
<polygon fill="midnightblue" stroke="midnightblue" points="40.6543,-294.882 40.3073,-305.471 47.182,-297.409 40.6543,-294.882"/>
</g>
<!-- Node24 -->
<g id="node24" class="node"><title>Node24</title>
<g id="a_node24"><a xlink:href="class_i_v_keyboard_control.html" target="_top" xlink:title="IVKeyboardControl">
<polygon fill="white" stroke="black" points="118.5,-134.503 118.5,-153.503 217.5,-153.503 217.5,-134.503 118.5,-134.503"/>
<text text-anchor="middle" x="168" y="-141.503" font-family="Helvetica,sans-Serif" font-size="10.00">IVKeyboardControl</text>
</a>
</g>
</g>
<!-- Node8&#45;&gt;Node24 -->
<g id="edge26" class="edge"><title>Node8&#45;&gt;Node24</title>
<path fill="none" stroke="midnightblue" d="M40.901,-295.193C48.2859,-262.881 67.3538,-198.846 108,-163.003 112.439,-159.089 117.694,-155.979 123.21,-153.509"/>
<polygon fill="midnightblue" stroke="midnightblue" points="37.4294,-294.691 38.7599,-305.202 44.2745,-296.155 37.4294,-294.691"/>
</g>
<!-- Node25 -->
<g id="node25" class="node"><title>Node25</title>
<g id="a_node25"><a xlink:href="class_i_v_meter_control.html" target="_top" xlink:title="IVMeterControl">
<polygon fill="white" stroke="black" points="126.5,-96.5031 126.5,-115.503 209.5,-115.503 209.5,-96.5031 126.5,-96.5031"/>
<text text-anchor="middle" x="168" y="-103.503" font-family="Helvetica,sans-Serif" font-size="10.00">IVMeterControl</text>
</a>
</g>
</g>
<!-- Node8&#45;&gt;Node25 -->
<g id="edge27" class="edge"><title>Node8&#45;&gt;Node25</title>
<path fill="none" stroke="midnightblue" d="M38.851,-294.693C43.4488,-256.124 58.8408,-171.948 108,-125.003 113.136,-120.098 119.546,-116.459 126.231,-113.76"/>
<polygon fill="midnightblue" stroke="midnightblue" points="35.3208,-294.793 37.7452,-305.107 42.2817,-295.532 35.3208,-294.793"/>
</g>
<!-- Node11&#45;&gt;Node4 -->
<g id="edge11" class="edge"><title>Node11&#45;&gt;Node4</title>
<path fill="none" stroke="midnightblue" d="M217.849,-309.539C221.382,-311.176 224.807,-312.993 228,-315.003 247.686,-327.4 244.988,-339.595 264,-353.003 269.069,-356.578 274.918,-359.705 280.637,-362.335"/>
<polygon fill="midnightblue" stroke="midnightblue" points="218.905,-306.189 208.326,-305.611 216.236,-312.66 218.905,-306.189"/>
</g>
<!-- Node12 -->
<g id="node12" class="node"><title>Node12</title>
<g id="a_node12"><a xlink:href="class_i_v_knob_control.html" target="_top" xlink:title="A vector knob control drawn using graphics primitves. ">
<polygon fill="white" stroke="black" points="268,-134.503 268,-153.503 348,-153.503 348,-134.503 268,-134.503"/>
<text text-anchor="middle" x="308" y="-141.503" font-family="Helvetica,sans-Serif" font-size="10.00">IVKnobControl</text>
</a>
</g>
</g>
<!-- Node11&#45;&gt;Node12 -->
<g id="edge12" class="edge"><title>Node11&#45;&gt;Node12</title>
<path fill="none" stroke="midnightblue" d="M220.663,-281.972C223.246,-280.478 225.713,-278.827 228,-277.003 271.045,-242.677 295.81,-178.04 303.968,-153.648"/>
<polygon fill="midnightblue" stroke="midnightblue" points="218.954,-278.912 211.529,-286.471 222.047,-285.192 218.954,-278.912"/>
</g>
<!-- Node13 -->
<g id="node13" class="node"><title>Node13</title>
<g id="a_node13"><a xlink:href="class_i_v_s_v_g_knob.html" target="_top" xlink:title="A vector knob control which rotates an SVG image. ">
<polygon fill="white" stroke="black" points="273,-286.503 273,-305.503 343,-305.503 343,-286.503 273,-286.503"/>
<text text-anchor="middle" x="308" y="-293.503" font-family="Helvetica,sans-Serif" font-size="10.00">IVSVGKnob</text>
</a>
</g>
</g>
<!-- Node11&#45;&gt;Node13 -->
<g id="edge13" class="edge"><title>Node11&#45;&gt;Node13</title>
<path fill="none" stroke="midnightblue" d="M226.316,-296.003C242.093,-296.003 258.708,-296.003 272.734,-296.003"/>
<polygon fill="midnightblue" stroke="midnightblue" points="226.106,-292.503 216.106,-296.003 226.106,-299.503 226.106,-292.503"/>
</g>
<!-- Node15&#45;&gt;Node6 -->
<g id="edge16" class="edge"><title>Node15&#45;&gt;Node6</title>
<path fill="none" stroke="midnightblue" d="M213.473,-384.249C232.495,-389.487 254.375,-395.512 272.188,-400.417"/>
<polygon fill="midnightblue" stroke="midnightblue" points="214.394,-380.873 203.823,-381.592 212.535,-387.621 214.394,-380.873"/>
</g>
<!-- Node16 -->
<g id="node16" class="node"><title>Node16</title>
<g id="a_node16"><a xlink:href="class_i_v_slider_control.html" target="_top" xlink:title="IVSliderControl">
<polygon fill="white" stroke="black" points="266.5,-324.503 266.5,-343.503 349.5,-343.503 349.5,-324.503 266.5,-324.503"/>
<text text-anchor="middle" x="308" y="-331.503" font-family="Helvetica,sans-Serif" font-size="10.00">IVSliderControl</text>
</a>
</g>
</g>
<!-- Node15&#45;&gt;Node16 -->
<g id="edge17" class="edge"><title>Node15&#45;&gt;Node16</title>
<path fill="none" stroke="midnightblue" d="M213.473,-359.757C232.495,-354.519 254.375,-348.494 272.188,-343.589"/>
<polygon fill="midnightblue" stroke="midnightblue" points="212.535,-356.385 203.823,-362.414 214.394,-363.134 212.535,-356.385"/>
</g>
<!-- Node19 -->
<g id="node19" class="node"><title>Node19</title>
<g id="a_node19"><a xlink:href="class_i_v_switch_control.html" target="_top" xlink:title="A vector switch control. ">
<polygon fill="white" stroke="black" points="264,-96.5031 264,-115.503 352,-115.503 352,-96.5031 264,-96.5031"/>
<text text-anchor="middle" x="308" y="-103.503" font-family="Helvetica,sans-Serif" font-size="10.00">IVSwitchControl</text>
</a>
</g>
</g>
<!-- Node18&#45;&gt;Node19 -->
<g id="edge20" class="edge"><title>Node18&#45;&gt;Node19</title>
<path fill="none" stroke="midnightblue" d="M221.74,-205.68C223.951,-204.265 226.053,-202.71 228,-201.003 256.1,-176.359 237.226,-151.082 264,-125.003 267.859,-121.245 272.586,-118.161 277.477,-115.655"/>
<polygon fill="midnightblue" stroke="midnightblue" points="219.94,-202.673 212.771,-210.475 223.24,-208.847 219.94,-202.673"/>
</g>
<!-- Node20 -->
<g id="node20" class="node"><title>Node20</title>
<g id="a_node20"><a xlink:href="class_i_v_contact_control.html" target="_top" xlink:title="IVContactControl">
<polygon fill="white" stroke="black" points="399,-96.5031 399,-115.503 491,-115.503 491,-96.5031 399,-96.5031"/>
<text text-anchor="middle" x="445" y="-103.503" font-family="Helvetica,sans-Serif" font-size="10.00">IVContactControl</text>
</a>
</g>
</g>
<!-- Node19&#45;&gt;Node20 -->
<g id="edge21" class="edge"><title>Node19&#45;&gt;Node20</title>
<path fill="none" stroke="midnightblue" d="M362.139,-106.003C374.334,-106.003 387.185,-106.003 398.999,-106.003"/>
<polygon fill="midnightblue" stroke="midnightblue" points="362.086,-102.503 352.086,-106.003 362.086,-109.503 362.086,-102.503"/>
</g>
<!-- Node21&#45;&gt;Node7 -->
<g id="edge23" class="edge"><title>Node21&#45;&gt;Node7</title>
<path fill="none" stroke="midnightblue" d="M213.473,-511.757C232.495,-506.519 254.375,-500.494 272.188,-495.589"/>
<polygon fill="midnightblue" stroke="midnightblue" points="212.535,-508.385 203.823,-514.414 214.394,-515.134 212.535,-508.385"/>
</g>
<!-- Node22 -->
<g id="node22" class="node"><title>Node22</title>
<g id="a_node22"><a xlink:href="class_i_caption_control.html" target="_top" xlink:title="ICaptionControl">
<polygon fill="white" stroke="black" points="265.5,-514.503 265.5,-533.503 350.5,-533.503 350.5,-514.503 265.5,-514.503"/>
<text text-anchor="middle" x="308" y="-521.503" font-family="Helvetica,sans-Serif" font-size="10.00">ICaptionControl</text>
</a>
</g>
</g>
<!-- Node21&#45;&gt;Node22 -->
<g id="edge24" class="edge"><title>Node21&#45;&gt;Node22</title>
<path fill="none" stroke="midnightblue" d="M214.282,-524.003C230.716,-524.003 249.193,-524.003 265.303,-524.003"/>
<polygon fill="midnightblue" stroke="midnightblue" points="213.823,-520.503 203.823,-524.003 213.823,-527.503 213.823,-520.503"/>
</g>
<!-- Node26 -->
<g id="node26" class="node"><title>Node26</title>
<g id="a_node26"><a xlink:href="class_i_vector_base.html" target="_top" xlink:title="A An interface for IVControls, in order for them to share a common set of colors. ...">
<polygon fill="white" stroke="black" points="0.5,-77.5031 0.5,-96.5031 71.5,-96.5031 71.5,-77.5031 0.5,-77.5031"/>
<text text-anchor="middle" x="36" y="-84.5031" font-family="Helvetica,sans-Serif" font-size="10.00">IVectorBase</text>
</a>
</g>
</g>
<!-- Node26&#45;&gt;Node12 -->
<g id="edge30" class="edge"><title>Node26&#45;&gt;Node12</title>
<path fill="none" stroke="midnightblue" d="M61.9395,-72.619C100.478,-52.4835 175.527,-21.7765 228,-54.0031 258.148,-72.5189 238.326,-100.66 264,-125.003 268.027,-128.822 272.949,-131.952 278.006,-134.491"/>
<polygon fill="midnightblue" stroke="midnightblue" points="60.1002,-69.6345 52.9642,-77.4657 63.4263,-75.7938 60.1002,-69.6345"/>
</g>
<!-- Node26&#45;&gt;Node16 -->
<g id="edge32" class="edge"><title>Node26&#45;&gt;Node16</title>
<path fill="none" stroke="midnightblue" d="M72.7624,-74.5791C115.077,-62.3818 185.174,-50.4081 228,-87.0031 305.993,-153.648 201.453,-233.687 264,-315.003 266.986,-318.885 270.934,-321.99 275.229,-324.471"/>
<polygon fill="midnightblue" stroke="midnightblue" points="71.7047,-71.2423 63.1495,-77.492 73.7348,-77.9415 71.7047,-71.2423"/>
</g>
<!-- Node26&#45;&gt;Node19 -->
<g id="edge33" class="edge"><title>Node26&#45;&gt;Node19</title>
<path fill="none" stroke="midnightblue" d="M48.9141,-68.5935C61.3057,-51.3129 82.4531,-26.5849 108,-16.0031 157.274,4.40671 179.416,5.99697 228,-16.0031 265.121,-32.8123 291.709,-76.6388 302.133,-96.259"/>
<polygon fill="midnightblue" stroke="midnightblue" points="45.7208,-67.0621 42.9584,-77.2905 51.4964,-71.0172 45.7208,-67.0621"/>
</g>
<!-- Node26&#45;&gt;Node23 -->
<g id="edge28" class="edge"><title>Node26&#45;&gt;Node23</title>
<path fill="none" stroke="midnightblue" d="M49.3565,-104.764C62.1759,-121.95 83.7225,-147.597 108,-163.003 113.997,-166.809 120.823,-169.915 127.652,-172.429"/>
<polygon fill="midnightblue" stroke="midnightblue" points="52.1793,-102.695 43.48,-96.6474 46.5093,-106.8 52.1793,-102.695"/>
</g>
<!-- Node26&#45;&gt;Node24 -->
<g id="edge29" class="edge"><title>Node26&#45;&gt;Node24</title>
<path fill="none" stroke="midnightblue" d="M61.9867,-101.801C75.3524,-109.349 92.2595,-118.321 108,-125.003 116.221,-128.493 125.314,-131.718 133.848,-134.482"/>
<polygon fill="midnightblue" stroke="midnightblue" points="63.3624,-98.5554 52.9476,-96.6103 59.8762,-104.626 63.3624,-98.5554"/>
</g>
<!-- Node26&#45;&gt;Node25 -->
<g id="edge31" class="edge"><title>Node26&#45;&gt;Node25</title>
<path fill="none" stroke="midnightblue" d="M81.9658,-93.575C96.2866,-95.668 112.045,-97.9713 126.065,-100.02"/>
<polygon fill="midnightblue" stroke="midnightblue" points="82.2387,-90.0778 71.8376,-92.0947 81.2263,-97.0042 82.2387,-90.0778"/>
</g>
</g>
</svg>
