<?xml version="1.0" encoding="UTF-8" standalone="no"?>
<!DOCTYPE svg PUBLIC "-//W3C//DTD SVG 1.1//EN"
 "http://www.w3.org/Graphics/SVG/1.1/DTD/svg11.dtd">
<!-- Generated by graphviz version 2.36.0 (20140111.2315)
 -->
<!-- Title: Graphical Class Hierarchy Pages: 1 -->
<svg width="320pt" height="66pt"
 viewBox="0.00 0.00 320.00 66.00" xmlns="http://www.w3.org/2000/svg" xmlns:xlink="http://www.w3.org/1999/xlink">
<g id="graph0" class="graph" transform="scale(1 1) rotate(0) translate(4 62)">
<title>Graphical Class Hierarchy</title>
<polygon fill="white" stroke="none" points="-4,4 -4,-62 316,-62 316,4 -4,4"/>
<!-- Node1 -->
<g id="node1" class="node"><title>Node1</title>
<g id="a_node1"><a xlink:href="class_i_timer_callback.html" target="_top" xlink:title="ITimerCallback">
<polygon fill="white" stroke="black" points="0.5,-19.5 0.5,-38.5 83.5,-38.5 83.5,-19.5 0.5,-19.5"/>
<text text-anchor="middle" x="42" y="-26.5" font-family="Helvetica,sans-Serif" font-size="10.00">ITimerCallback</text>
</a>
</g>
</g>
<!-- Node2 -->
<g id="node2" class="node"><title>Node2</title>
<g id="a_node2"><a xlink:href="class_o_s_c_interface.html" target="_top" xlink:title="OSCInterface">
<polygon fill="white" stroke="black" points="120.5,-19.5 120.5,-38.5 197.5,-38.5 197.5,-19.5 120.5,-19.5"/>
<text text-anchor="middle" x="159" y="-26.5" font-family="Helvetica,sans-Serif" font-size="10.00">OSCInterface</text>
</a>
</g>
</g>
<!-- Node1&#45;&gt;Node2 -->
<g id="edge1" class="edge"><title>Node1&#45;&gt;Node2</title>
<path fill="none" stroke="midnightblue" d="M93.7854,-29C102.637,-29 111.703,-29 120.131,-29"/>
<polygon fill="midnightblue" stroke="midnightblue" points="93.5447,-25.5001 83.5447,-29 93.5447,-32.5001 93.5447,-25.5001"/>
</g>
<!-- Node3 -->
<g id="node3" class="node"><title>Node3</title>
<g id="a_node3"><a xlink:href="class_o_s_c_reciever.html" target="_top" xlink:title="OSCReciever">
<polygon fill="white" stroke="black" points="234.5,-38.5 234.5,-57.5 311.5,-57.5 311.5,-38.5 234.5,-38.5"/>
<text text-anchor="middle" x="273" y="-45.5" font-family="Helvetica,sans-Serif" font-size="10.00">OSCReciever</text>
</a>
</g>
</g>
<!-- Node2&#45;&gt;Node3 -->
<g id="edge2" class="edge"><title>Node2&#45;&gt;Node3</title>
<path fill="none" stroke="midnightblue" d="M207.528,-37.0628C216.471,-38.58 225.71,-40.1472 234.303,-41.6049"/>
<polygon fill="midnightblue" stroke="midnightblue" points="208.051,-33.6015 197.606,-35.3796 206.88,-40.5029 208.051,-33.6015"/>
</g>
<!-- Node4 -->
<g id="node4" class="node"><title>Node4</title>
<g id="a_node4"><a xlink:href="class_o_s_c_sender.html" target="_top" xlink:title="OSCSender">
<polygon fill="white" stroke="black" points="238.5,-0.5 238.5,-19.5 307.5,-19.5 307.5,-0.5 238.5,-0.5"/>
<text text-anchor="middle" x="273" y="-7.5" font-family="Helvetica,sans-Serif" font-size="10.00">OSCSender</text>
</a>
</g>
</g>
<!-- Node2&#45;&gt;Node4 -->
<g id="edge3" class="edge"><title>Node2&#45;&gt;Node4</title>
<path fill="none" stroke="midnightblue" d="M207.754,-20.8988C218.084,-19.1465 228.796,-17.3292 238.444,-15.6926"/>
<polygon fill="midnightblue" stroke="midnightblue" points="206.88,-17.4971 197.606,-22.6204 208.051,-24.3985 206.88,-17.4971"/>
</g>
</g>
</svg>
